<svg viewBox="0 0 36 38" fill="none" xmlns="http://www.w3.org/2000/svg">
<path d="M4.12223 34.7498C9.6224 39.3592 20.1655 35.8115 27.6401 26.8666C35.1147 17.9216 36.7436 6.89839 31.2444 2.31972C25.7453 -2.25896 15.2002 1.2273 7.72656 10.2029C0.252972 19.1786 -1.37692 30.1711 4.12223 34.7498Z" fill="white"/>
<path d="M5.40461 25.3052C7.9644 27.4318 13.771 24.657 18.41 19.1251C23.049 13.5932 24.7151 7.36182 22.1553 5.23513C19.5955 3.10844 13.7879 5.85264 9.14989 11.4152C4.51188 16.9778 2.84379 23.1478 5.40461 25.3052Z" fill="#DADADA"/>
<path d="M10.6039 12.626C14.799 7.60055 19.9323 4.90959 22.6752 6.07768C24.2365 8.66788 22.4865 14.2261 18.2904 19.2209C14.0943 24.2156 8.96197 26.9373 6.21913 25.7692C4.65676 23.1483 6.43849 17.6197 10.6039 12.626Z" fill="#F0F0F0"/>
</svg>
