<svg viewBox="0 0 48 121" fill="none" xmlns="http://www.w3.org/2000/svg">
<path d="M40.8757 0.720944L37.8694 2.55467C41.1162 8.02556 41.8076 13.3904 39.9287 18.4672C37.4335 25.2112 30.7745 30.1213 25.6639 31.8187C10.3318 36.8804 0.831881 47.2614 0.185528 59.5217C-0.460824 71.782 7.89666 83.2845 22.5824 89.9829C48.1359 101.637 41.1613 118.353 40.8456 119.065L44.0924 120.581C44.1826 120.368 52.7956 99.8791 24.0555 86.7701C10.7526 80.7082 3.16176 70.6151 3.73295 59.7642C4.30415 48.9133 12.9021 39.881 26.7311 35.2891C32.8339 33.2584 40.2594 27.7117 43.2657 19.7857C45.4603 13.648 44.6486 7.07082 40.8757 0.720944Z" fill="white"/>
<path d="M9.57965 4.05451L6.57336 2.09952C5.08346 4.23864 4.08855 6.68752 3.66191 9.26574C3.23527 11.844 3.38778 14.4858 4.1082 16.9968C6.42305 25.2107 14.5551 32.2577 21.1388 35.3492C35.1782 41.9113 43.1449 50.7314 43.5958 60.1577C44.0017 69.2506 37.3878 78.2071 24.9268 85.5269C-3.45262 102.197 5.19046 118.519 5.56625 119.201L8.66273 117.458C8.3621 116.897 1.50776 103.425 26.7005 88.664C40.349 80.6471 47.6092 70.4782 47.1282 60.0517C46.6172 49.2159 37.9139 39.3047 22.6119 32.1364C17.7267 29.848 9.66984 23.68 7.50531 16.0572C6.93524 14.0278 6.82568 11.8951 7.18478 9.81731C7.54388 7.73948 8.36242 5.76984 9.57965 4.05451Z" fill="white"/>
<path d="M43.5871 115.917L7.30121 115.84L7.30492 114.052L43.5908 114.128L43.5871 115.917Z" fill="white"/>
<path d="M42.5446 105.578L6.85992 105.76L6.87495 107.563L42.5596 107.366L42.5446 105.578Z" fill="white"/>
<path d="M12.0149 98.9841L11.9706 97.1964L35.743 96.5981L35.7873 98.3858L12.0149 98.9841Z" fill="white"/>
<path d="M41.3827 74.853L5.0968 74.7827L5.10021 72.9944L41.3861 73.0646L41.3827 74.853Z" fill="white"/>
<path d="M40.6662 48.4817L6.13901 48.4149L6.14241 46.6266L40.6696 46.6934L40.6662 48.4817Z" fill="white"/>
<path d="M32.9305 39.6586L15.1634 39.6274L15.1665 37.8391L32.9336 37.8704L32.9305 39.6586Z" fill="white"/>
<path d="M32.5479 80.9049L11.6692 80.8746V82.6629L32.5479 82.7083V80.9049Z" fill="white"/>
<path d="M44.6187 67.2957L2.36316 66.2397L2.40711 64.452L44.6626 65.508L44.6187 67.2957Z" fill="white"/>
<path d="M44.9073 57.9348L2.20297 57.5043L2.22071 55.716L44.9251 56.1466L44.9073 57.9348Z" fill="white"/>
<path d="M41.9612 8.50796L7.40482 8.25256L7.41782 6.46435L41.9742 6.71975L41.9612 8.50796Z" fill="white"/>
<path d="M40.2293 22.5287L8.82857 21.7406L8.78348 23.544L40.1842 24.3321L40.2293 22.5287Z" fill="white"/>
<path d="M42.4446 16.207L4.11487 16.0182L4.12354 14.2299L42.4533 14.4188L42.4446 16.207Z" fill="white"/>
</svg>
