<svg viewBox="0 0 101 128" fill="none" xmlns="http://www.w3.org/2000/svg">
<path d="M65.4087 124.331L67.1167 121.228C61.5463 118.126 58.2602 113.829 57.3623 108.485C56.1691 101.387 59.5281 93.7777 63.1418 89.7314C73.9979 77.6188 77.102 63.8397 71.5362 52.8961C65.9704 41.9526 52.922 36.2042 36.7501 37.8063C8.6115 40.5952 6.34336 22.6029 6.26284 21.827L2.6702 22.1512C2.69754 22.3805 5.42188 44.4666 37.0704 41.3313C51.7165 39.875 63.3909 44.7893 68.3176 54.4744C73.2443 64.1595 70.2533 76.3159 60.4747 87.2639C56.1615 92.099 52.4514 100.646 53.7895 109.025C54.9422 115.447 58.9395 120.734 65.4087 124.331Z" fill="white"/>
<path d="M91.0675 105.668L94.6699 105.845C94.9012 103.242 94.5455 100.619 93.6289 98.1715C92.7123 95.7237 91.2582 93.5126 89.3737 91.7013C83.2456 85.7547 72.6217 83.7512 65.3274 84.3927C49.7881 85.7872 38.4221 82.1648 33.3152 74.2287C28.4144 66.5586 29.7109 55.4679 36.9312 42.8471C53.3751 14.104 37.6676 4.32597 36.9985 3.9248L35.1663 6.99505C35.7091 7.32911 48.4302 15.5415 33.814 41.0245C25.9054 54.8476 24.6508 67.314 30.284 76.1012C36.1481 85.2276 48.7028 89.4236 65.6476 87.9177C71.0573 87.4368 81.176 88.717 86.8774 94.2275C88.3898 95.6975 89.5518 97.4893 90.2772 99.4698C91.0025 101.45 91.2727 103.569 91.0675 105.668Z" fill="white"/>
<path d="M5.44345 25.9356L37.1642 7.71014L38.0551 9.26069L6.33434 27.4862L5.44345 25.9356Z" fill="white"/>
<path d="M11.5231 34.3639L42.5897 16.2176L41.6748 14.6633L10.6158 32.8227L11.5231 34.3639Z" fill="white"/>
<path d="M41.4764 24.6839L42.4089 26.2098L21.9516 38.7117L21.0191 37.1858L41.4764 24.6839Z" fill="white"/>
<path d="M27.9 60.3866L59.6176 42.1555L60.5087 43.7059L28.7912 61.937L27.9 60.3866Z" fill="white"/>
<path d="M41.7112 82.8635L71.8915 65.5161L72.7826 67.0665L42.6024 84.4139L41.7112 82.8635Z" fill="white"/>
<path d="M52.877 86.605L68.4057 77.6755L69.2972 79.2258L53.7684 88.1552L52.877 86.605Z" fill="white"/>
<path d="M32.588 50.6917L50.833 40.1929L49.9389 38.6442L31.6863 49.1299L32.588 50.6917Z" fill="white"/>
<path d="M28.8531 68.5626L66.2759 48.176L67.1314 49.7463L29.7086 70.1329L28.8531 68.5626Z" fill="white"/>
<path d="M33.2815 76.8149L70.7834 55.6603L71.6621 57.2179L34.1602 78.3725L33.2815 76.8149Z" fill="white"/>
<path d="M60.5673 118.135L90.8674 100.936L91.7502 102.491L61.4501 119.69L60.5673 118.135Z" fill="white"/>
<path d="M55.0692 105.119L82.8803 89.9726L82.0179 88.388L54.2068 103.535L55.0692 105.119Z" fill="white"/>
<path d="M56.2957 111.711L89.8571 92.5521L90.7437 94.1051L57.1823 113.264L56.2957 111.711Z" fill="white"/>
</svg>
