<svg viewBox="0 0 36 36" xmlns="http://www.w3.org/2000/svg">
<path d="M8.4 22.5C8.4 22.0029 7.99706 21.6 7.5 21.6C7.00294 21.6 6.6 22.0029 6.6 22.5H8.4ZM7.5 24H6.6H7.5ZM29.4 22.5C29.4 22.0029 28.9971 21.6 28.5 21.6C28.0029 21.6 27.6 22.0029 27.6 22.5H29.4ZM17.2972 23.4378C16.9867 23.8259 17.0496 24.3923 17.4378 24.7028C17.8259 25.0133 18.3923 24.9504 18.7028 24.5622L17.2972 23.4378ZM24.7028 17.0622C25.0133 16.6741 24.9504 16.1077 24.5622 15.7972C24.1741 15.4867 23.6077 15.5496 23.2972 15.9378L24.7028 17.0622ZM17.2972 24.5622C17.6077 24.9504 18.1741 25.0133 18.5622 24.7028C18.9504 24.3923 19.0133 23.8259 18.7028 23.4378L17.2972 24.5622ZM12.7028 15.9378C12.3923 15.5496 11.8259 15.4867 11.4378 15.7972C11.0496 16.1077 10.9867 16.6741 11.2972 17.0622L12.7028 15.9378ZM17.1 24C17.1 24.4971 17.5029 24.9 18 24.9C18.4971 24.9 18.9 24.4971 18.9 24H17.1ZM18.9 7.5C18.9 7.00294 18.4971 6.6 18 6.6C17.5029 6.6 17.1 7.00294 17.1 7.5H18.9ZM6.6 22.5V24H8.4V22.5H6.6ZM6.6 24C6.6 26.9823 9.01766 29.4 12 29.4V27.6C10.0118 27.6 8.4 25.9882 8.4 24H6.6ZM12 29.4H24V27.6H12V29.4ZM24 29.4C26.9823 29.4 29.4 26.9823 29.4 24H27.6C27.6 25.9882 25.9882 27.6 24 27.6V29.4ZM29.4 24V22.5H27.6V24H29.4ZM18.7028 24.5622L24.7028 17.0622L23.2972 15.9378L17.2972 23.4378L18.7028 24.5622ZM18.7028 23.4378L12.7028 15.9378L11.2972 17.0622L17.2972 24.5622L18.7028 23.4378ZM18.9 24V7.5H17.1V24H18.9Z"/>
</svg>
