<svg width="169" height="34" viewBox="0 0 169 34" fill="none" xmlns="http://www.w3.org/2000/svg">
<path d="M4.19306 0C9.97766 2.83906 8.21686 8.11063 4.87999 10.7984C-2.38757 16.652 -1.91056 26.3625 8.838 29.9049C7.9747 27.3327 8.05427 24.7274 9.00723 22.1656C6.53029 20.1563 5.85903 17.2245 9.98389 11.5675C12.4767 8.14891 11.9462 0.562031 4.19298 7.80821e-05L4.19306 0ZM33.8474 0C26.0941 0.561953 25.5637 8.14891 28.0564 11.5675C31.9754 16.9421 31.5626 19.8571 29.3867 21.8581C29.9637 23.2438 30.376 24.6581 30.4763 26.1134C30.5553 27.262 30.4295 28.4321 30.0456 29.6071C39.9692 25.8441 40.2298 16.4946 33.1576 10.7985C29.8208 8.1107 28.0626 2.83914 33.8471 7.80821e-05L33.8474 0ZM27.2951 20.9645C21.871 21.716 16.5164 22.3309 11.1989 21.0182C9.27416 24.5776 9.21427 27.9913 11.2375 31.5382C16.6164 31.0589 21.9926 31.0847 27.3643 31.5429C28.6599 29.7067 29.0674 27.9702 28.9461 26.2085C28.8279 24.4931 28.1787 22.7432 27.2952 20.9644L27.2951 20.9645Z" fill="#5050EB"/>
<path d="M47.94 14V7H49.24V12.9H52.9V14H47.94ZM53.9263 14V7H55.2263V12.9H58.8863V14H53.9263ZM63.0257 14.1C62.4924 14.1 61.9957 14.0133 61.5357 13.84C61.0824 13.66 60.6857 13.41 60.3457 13.09C60.0124 12.7633 59.7524 12.38 59.5657 11.94C59.379 11.5 59.2857 11.02 59.2857 10.5C59.2857 9.98 59.379 9.5 59.5657 9.06C59.7524 8.62 60.0157 8.24 60.3557 7.92C60.6957 7.59333 61.0924 7.34333 61.5457 7.17C61.999 6.99 62.4957 6.9 63.0357 6.9C63.609 6.9 64.1324 7 64.6057 7.2C65.079 7.39333 65.479 7.68333 65.8057 8.07L64.9657 8.86C64.7124 8.58667 64.429 8.38333 64.1157 8.25C63.8024 8.11 63.4624 8.04 63.0957 8.04C62.729 8.04 62.3924 8.1 62.0857 8.22C61.7857 8.34 61.5224 8.51 61.2957 8.73C61.0757 8.95 60.9024 9.21 60.7757 9.51C60.6557 9.81 60.5957 10.14 60.5957 10.5C60.5957 10.86 60.6557 11.19 60.7757 11.49C60.9024 11.79 61.0757 12.05 61.2957 12.27C61.5224 12.49 61.7857 12.66 62.0857 12.78C62.3924 12.9 62.729 12.96 63.0957 12.96C63.4624 12.96 63.8024 12.8933 64.1157 12.76C64.429 12.62 64.7124 12.41 64.9657 12.13L65.8057 12.93C65.479 13.31 65.079 13.6 64.6057 13.8C64.1324 14 63.6057 14.1 63.0257 14.1Z" fill="black"/>
<path d="M52.86 21H54.16V28H52.86V21ZM49.24 28H47.94V21H49.24V28ZM52.96 25H49.13V23.89H52.96V25ZM59.3157 28.1C58.769 28.1 58.2657 28.01 57.8057 27.83C57.3457 27.65 56.9457 27.4 56.6057 27.08C56.2657 26.7533 56.0024 26.3733 55.8157 25.94C55.629 25.5 55.5357 25.02 55.5357 24.5C55.5357 23.98 55.629 23.5033 55.8157 23.07C56.0024 22.63 56.2657 22.25 56.6057 21.93C56.9457 21.6033 57.3457 21.35 57.8057 21.17C58.2657 20.99 58.7657 20.9 59.3057 20.9C59.8524 20.9 60.3524 20.99 60.8057 21.17C61.2657 21.35 61.6657 21.6033 62.0057 21.93C62.3457 22.25 62.609 22.63 62.7957 23.07C62.9824 23.5033 63.0757 23.98 63.0757 24.5C63.0757 25.02 62.9824 25.5 62.7957 25.94C62.609 26.38 62.3457 26.76 62.0057 27.08C61.6657 27.4 61.2657 27.65 60.8057 27.83C60.3524 28.01 59.8557 28.1 59.3157 28.1ZM59.3057 26.96C59.659 26.96 59.9857 26.9 60.2857 26.78C60.5857 26.66 60.8457 26.49 61.0657 26.27C61.2857 26.0433 61.4557 25.7833 61.5757 25.49C61.7024 25.19 61.7657 24.86 61.7657 24.5C61.7657 24.14 61.7024 23.8133 61.5757 23.52C61.4557 23.22 61.2857 22.96 61.0657 22.74C60.8457 22.5133 60.5857 22.34 60.2857 22.22C59.9857 22.1 59.659 22.04 59.3057 22.04C58.9524 22.04 58.6257 22.1 58.3257 22.22C58.0324 22.34 57.7724 22.5133 57.5457 22.74C57.3257 22.96 57.1524 23.22 57.0257 23.52C56.9057 23.8133 56.8457 24.14 56.8457 24.5C56.8457 24.8533 56.9057 25.18 57.0257 25.48C57.1524 25.78 57.3257 26.0433 57.5457 26.27C57.7657 26.49 58.0257 26.66 58.3257 26.78C58.6257 26.9 58.9524 26.96 59.3057 26.96ZM67.7337 28.1C67.187 28.1 66.6837 28.01 66.2237 27.83C65.7637 27.65 65.3637 27.4 65.0237 27.08C64.6837 26.7533 64.4203 26.3733 64.2337 25.94C64.047 25.5 63.9537 25.02 63.9537 24.5C63.9537 23.98 64.047 23.5033 64.2337 23.07C64.4203 22.63 64.6837 22.25 65.0237 21.93C65.3637 21.6033 65.7637 21.35 66.2237 21.17C66.6837 20.99 67.1837 20.9 67.7237 20.9C68.2703 20.9 68.7703 20.99 69.2237 21.17C69.6837 21.35 70.0837 21.6033 70.4237 21.93C70.7637 22.25 71.027 22.63 71.2137 23.07C71.4003 23.5033 71.4937 23.98 71.4937 24.5C71.4937 25.02 71.4003 25.5 71.2137 25.94C71.027 26.38 70.7637 26.76 70.4237 27.08C70.0837 27.4 69.6837 27.65 69.2237 27.83C68.7703 28.01 68.2737 28.1 67.7337 28.1ZM67.7237 26.96C68.077 26.96 68.4037 26.9 68.7037 26.78C69.0037 26.66 69.2637 26.49 69.4837 26.27C69.7037 26.0433 69.8737 25.7833 69.9937 25.49C70.1203 25.19 70.1837 24.86 70.1837 24.5C70.1837 24.14 70.1203 23.8133 69.9937 23.52C69.8737 23.22 69.7037 22.96 69.4837 22.74C69.2637 22.5133 69.0037 22.34 68.7037 22.22C68.4037 22.1 68.077 22.04 67.7237 22.04C67.3703 22.04 67.0437 22.1 66.7437 22.22C66.4503 22.34 66.1903 22.5133 65.9637 22.74C65.7437 22.96 65.5703 23.22 65.4437 23.52C65.3237 23.8133 65.2637 24.14 65.2637 24.5C65.2637 24.8533 65.3237 25.18 65.4437 25.48C65.5703 25.78 65.7437 26.0433 65.9637 26.27C66.1837 26.49 66.4437 26.66 66.7437 26.78C67.0437 26.9 67.3703 26.96 67.7237 26.96ZM74.7268 28L71.6668 21H73.0768L75.8068 27.33H74.9968L77.7568 21H79.0568L76.0068 28H74.7268ZM80.9955 23.91H84.4755V24.98H80.9955V23.91ZM81.0955 26.91H85.0455V28H79.7955V21H84.9055V22.09H81.0955V26.91ZM88.6647 28.1C88.118 28.1 87.5947 28.0233 87.0947 27.87C86.5947 27.71 86.198 27.5067 85.9047 27.26L86.3547 26.25C86.6347 26.47 86.9814 26.6533 87.3947 26.8C87.808 26.9467 88.2314 27.02 88.6647 27.02C89.0314 27.02 89.328 26.98 89.5547 26.9C89.7814 26.82 89.948 26.7133 90.0547 26.58C90.1614 26.44 90.2147 26.2833 90.2147 26.11C90.2147 25.8967 90.138 25.7267 89.9847 25.6C89.8314 25.4667 89.6314 25.3633 89.3847 25.29C89.1447 25.21 88.8747 25.1367 88.5747 25.07C88.2814 25.0033 87.9847 24.9267 87.6847 24.84C87.3914 24.7467 87.1214 24.63 86.8747 24.49C86.6347 24.3433 86.438 24.15 86.2847 23.91C86.1314 23.67 86.0547 23.3633 86.0547 22.99C86.0547 22.61 86.1547 22.2633 86.3547 21.95C86.5614 21.63 86.8714 21.3767 87.2847 21.19C87.7047 20.9967 88.2347 20.9 88.8747 20.9C89.2947 20.9 89.7114 20.9533 90.1247 21.06C90.538 21.1667 90.898 21.32 91.2047 21.52L90.7947 22.53C90.4814 22.3433 90.158 22.2067 89.8247 22.12C89.4914 22.0267 89.1714 21.98 88.8647 21.98C88.5047 21.98 88.2114 22.0233 87.9847 22.11C87.7647 22.1967 87.6014 22.31 87.4947 22.45C87.3947 22.59 87.3447 22.75 87.3447 22.93C87.3447 23.1433 87.418 23.3167 87.5647 23.45C87.718 23.5767 87.9147 23.6767 88.1547 23.75C88.4014 23.8233 88.6747 23.8967 88.9747 23.97C89.2747 24.0367 89.5714 24.1133 89.8647 24.2C90.1647 24.2867 90.4347 24.4 90.6747 24.54C90.9214 24.68 91.118 24.87 91.2647 25.11C91.418 25.35 91.4947 25.6533 91.4947 26.02C91.4947 26.3933 91.3914 26.74 91.1847 27.06C90.9847 27.3733 90.6747 27.6267 90.2547 27.82C89.8347 28.0067 89.3047 28.1 88.6647 28.1ZM94.5574 28L97.7074 21H98.9874L102.147 28H100.787L98.0774 21.69H98.5974L95.8974 28H94.5574ZM96.0074 26.38L96.3574 25.36H100.137L100.487 26.38H96.0074ZM103.038 28V21H104.108L108.498 26.39H107.968V21H109.258V28H108.188L103.798 22.61H104.328V28H103.038ZM111.133 28V21H114.193C114.953 21 115.62 21.1467 116.193 21.44C116.767 21.7333 117.213 22.14 117.533 22.66C117.853 23.18 118.013 23.7933 118.013 24.5C118.013 25.2 117.853 25.8133 117.533 26.34C117.213 26.86 116.767 27.2667 116.193 27.56C115.62 27.8533 114.953 28 114.193 28H111.133ZM112.433 26.9H114.133C114.66 26.9 115.113 26.8 115.493 26.6C115.88 26.4 116.177 26.12 116.383 25.76C116.597 25.4 116.703 24.98 116.703 24.5C116.703 24.0133 116.597 23.5933 116.383 23.24C116.177 22.88 115.88 22.6 115.493 22.4C115.113 22.2 114.66 22.1 114.133 22.1H112.433V26.9ZM127.079 21H128.379V28H127.079V21ZM123.459 28H122.159V21H123.459V28ZM127.179 25H123.349V23.89H127.179V25ZM133.534 28.1C132.988 28.1 132.484 28.01 132.024 27.83C131.564 27.65 131.164 27.4 130.824 27.08C130.484 26.7533 130.221 26.3733 130.034 25.94C129.848 25.5 129.754 25.02 129.754 24.5C129.754 23.98 129.848 23.5033 130.034 23.07C130.221 22.63 130.484 22.25 130.824 21.93C131.164 21.6033 131.564 21.35 132.024 21.17C132.484 20.99 132.984 20.9 133.524 20.9C134.071 20.9 134.571 20.99 135.024 21.17C135.484 21.35 135.884 21.6033 136.224 21.93C136.564 22.25 136.828 22.63 137.014 23.07C137.201 23.5033 137.294 23.98 137.294 24.5C137.294 25.02 137.201 25.5 137.014 25.94C136.828 26.38 136.564 26.76 136.224 27.08C135.884 27.4 135.484 27.65 135.024 27.83C134.571 28.01 134.074 28.1 133.534 28.1ZM133.524 26.96C133.878 26.96 134.204 26.9 134.504 26.78C134.804 26.66 135.064 26.49 135.284 26.27C135.504 26.0433 135.674 25.7833 135.794 25.49C135.921 25.19 135.984 24.86 135.984 24.5C135.984 24.14 135.921 23.8133 135.794 23.52C135.674 23.22 135.504 22.96 135.284 22.74C135.064 22.5133 134.804 22.34 134.504 22.22C134.204 22.1 133.878 22.04 133.524 22.04C133.171 22.04 132.844 22.1 132.544 22.22C132.251 22.34 131.991 22.5133 131.764 22.74C131.544 22.96 131.371 23.22 131.244 23.52C131.124 23.8133 131.064 24.14 131.064 24.5C131.064 24.8533 131.124 25.18 131.244 25.48C131.371 25.78 131.544 26.0433 131.764 26.27C131.984 26.49 132.244 26.66 132.544 26.78C132.844 26.9 133.171 26.96 133.524 26.96ZM138.672 28V21H141.552C142.172 21 142.702 21.1 143.142 21.3C143.589 21.5 143.932 21.7867 144.172 22.16C144.412 22.5333 144.532 22.9767 144.532 23.49C144.532 24.0033 144.412 24.4467 144.172 24.82C143.932 25.1867 143.589 25.47 143.142 25.67C142.702 25.8633 142.172 25.96 141.552 25.96H139.392L139.972 25.37V28H138.672ZM143.252 28L141.482 25.46H142.872L144.652 28H143.252ZM139.972 25.51L139.392 24.89H141.492C142.066 24.89 142.496 24.7667 142.782 24.52C143.076 24.2733 143.222 23.93 143.222 23.49C143.222 23.0433 143.076 22.7 142.782 22.46C142.496 22.22 142.066 22.1 141.492 22.1H139.392L139.972 21.46V25.51ZM145.987 28V21H147.057L151.447 26.39H150.917V21H152.207V28H151.137L146.747 22.61H147.277V28H145.987ZM156.253 28.1C155.706 28.1 155.183 28.0233 154.683 27.87C154.183 27.71 153.786 27.5067 153.493 27.26L153.943 26.25C154.223 26.47 154.569 26.6533 154.983 26.8C155.396 26.9467 155.819 27.02 156.253 27.02C156.619 27.02 156.916 26.98 157.143 26.9C157.369 26.82 157.536 26.7133 157.643 26.58C157.749 26.44 157.803 26.2833 157.803 26.11C157.803 25.8967 157.726 25.7267 157.573 25.6C157.419 25.4667 157.219 25.3633 156.973 25.29C156.733 25.21 156.463 25.1367 156.163 25.07C155.869 25.0033 155.573 24.9267 155.273 24.84C154.979 24.7467 154.709 24.63 154.463 24.49C154.223 24.3433 154.026 24.15 153.873 23.91C153.719 23.67 153.643 23.3633 153.643 22.99C153.643 22.61 153.743 22.2633 153.943 21.95C154.149 21.63 154.459 21.3767 154.873 21.19C155.293 20.9967 155.823 20.9 156.463 20.9C156.883 20.9 157.299 20.9533 157.713 21.06C158.126 21.1667 158.486 21.32 158.793 21.52L158.383 22.53C158.069 22.3433 157.746 22.2067 157.413 22.12C157.079 22.0267 156.759 21.98 156.453 21.98C156.093 21.98 155.799 22.0233 155.573 22.11C155.353 22.1967 155.189 22.31 155.083 22.45C154.983 22.59 154.933 22.75 154.933 22.93C154.933 23.1433 155.006 23.3167 155.153 23.45C155.306 23.5767 155.503 23.6767 155.743 23.75C155.989 23.8233 156.263 23.8967 156.563 23.97C156.863 24.0367 157.159 24.1133 157.453 24.2C157.753 24.2867 158.023 24.4 158.263 24.54C158.509 24.68 158.706 24.87 158.853 25.11C159.006 25.35 159.083 25.6533 159.083 26.02C159.083 26.3933 158.979 26.74 158.773 27.06C158.573 27.3733 158.263 27.6267 157.843 27.82C157.423 28.0067 156.893 28.1 156.253 28.1Z" fill="#5050EB"/>
</svg>
