<svg viewBox="0 0 148 37" fill="none" xmlns="http://www.w3.org/2000/svg">
<path d="M45.2644 8.43259C45.2644 8.14447 45.3153 7.8626 45.4171 7.58697C45.523 7.30718 45.6767 7.05443 45.876 6.82769C46.0754 6.59678 46.3194 6.41476 46.6071 6.28163C46.8947 6.14433 47.2228 6.07568 47.5904 6.07568C48.0245 6.07568 48.3993 6.17137 48.714 6.36172C49.0327 6.55206 49.2695 6.80064 49.4253 7.10748L48.7212 7.59321C48.6413 7.41535 48.5374 7.27598 48.4087 7.17405C48.2799 7.06795 48.1428 6.99411 47.9964 6.95458C47.85 6.90986 47.7057 6.88801 47.5645 6.88801C47.3339 6.88801 47.1325 6.93482 46.9601 7.02739C46.7919 7.121 46.6496 7.24269 46.5344 7.39351C46.4191 7.54433 46.3329 7.71283 46.2748 7.89901C46.2218 8.08519 46.1948 8.27137 46.1948 8.45859C46.1948 8.66661 46.2281 8.86944 46.2945 9.06394C46.361 9.25428 46.4544 9.4259 46.5738 9.57671C46.6974 9.72337 46.8438 9.8409 47.012 9.92931C47.1844 10.0136 47.3734 10.0562 47.5769 10.0562C47.7233 10.0562 47.8718 10.0312 48.0224 9.9834C48.173 9.93451 48.3121 9.85651 48.4409 9.75041C48.5696 9.64432 48.6693 9.50599 48.7399 9.33749L49.4907 9.77018C49.3972 10.0052 49.2446 10.2049 49.0317 10.3693C48.823 10.5336 48.5883 10.6574 48.3277 10.7416C48.066 10.8259 47.8074 10.8685 47.5499 10.8685C47.2135 10.8685 46.9051 10.7999 46.6258 10.6626C46.3464 10.5201 46.1055 10.3339 45.901 10.103C45.7016 9.86795 45.5448 9.60584 45.4295 9.31773C45.3184 9.02441 45.2634 8.73006 45.2634 8.43259H45.2644Z" fill="#222222"/>
<path d="M53.1094 10.8289V6.90765H51.7273L51.7003 7.70646C51.6785 8.33261 51.6276 8.84955 51.5476 9.25728C51.4677 9.66604 51.3524 9.98744 51.2018 10.2225C51.0513 10.4534 50.8602 10.6177 50.6307 10.7155C50.4044 10.8091 50.1323 10.8549 49.8135 10.8549V10.0623C49.9776 10.0623 50.1188 10.027 50.2392 9.95623C50.3587 9.88551 50.4583 9.75653 50.5383 9.57035C50.6224 9.38417 50.6889 9.11998 50.7377 8.77778C50.7865 8.43662 50.8197 7.99457 50.8374 7.45267L50.8841 6.10156H54.0211V10.8279H53.1104L53.1094 10.8289Z" fill="#222222"/>
<path d="M55.4708 10.8621V10.1028H55.8425C55.9578 10.1028 56.044 10.0779 56.1021 10.03C56.1592 9.98113 56.2111 9.90312 56.2547 9.79703L56.3607 9.56405L54.4864 6.10254H55.4967L56.7656 8.6321L57.8684 6.10254H58.832L56.9515 10.2297C56.8362 10.4648 56.7054 10.6291 56.559 10.7227C56.4126 10.8163 56.2174 10.8621 55.9744 10.8621H55.4697H55.4708Z" fill="#222222"/>
<path d="M58.8974 10.8288L60.7187 8.37935L59.0303 6.10254H60.0936L61.4695 8.00595H61.8682V6.10254H62.7789V8.00595H63.1776L64.5535 6.10254H65.6168L63.9284 8.37935L65.7497 10.8288H64.6999L63.1911 8.83804H62.7789V10.8288H61.8682V8.83804H61.4498L59.9482 10.8288H58.8984H58.8974Z" fill="#222222"/>
<path d="M66.3894 10.8288V6.10254H69.7922V6.89511H67.3001V8.03299H68.5825C69.11 8.03299 69.5067 8.15677 69.7725 8.40536C70.0383 8.65394 70.1712 8.98678 70.1712 9.40387C70.1712 9.68366 70.1141 9.93017 69.9989 10.1424C69.8836 10.3556 69.7133 10.5241 69.4869 10.6478C69.2606 10.7675 68.975 10.8278 68.6292 10.8278H66.3894V10.8288ZM67.3001 10.0373H68.5025C68.6801 10.0373 68.8213 10.0061 68.9283 9.94369C69.0342 9.87712 69.1121 9.79495 69.1609 9.69718C69.2097 9.59525 69.2336 9.48812 69.2336 9.37787C69.2336 9.26761 69.2118 9.16464 69.1671 9.07207C69.1277 8.9743 69.0539 8.89629 68.948 8.83908C68.8421 8.77668 68.6884 8.74547 68.489 8.74547H67.299V10.0373H67.3001Z" fill="#222222"/>
<path d="M72.0009 6.10254H72.9313L74.6654 10.8288H73.7215L73.2833 9.65037H71.6353L71.2034 10.8288H70.2595L72.0009 6.10254ZM73.1171 9.0055L72.4661 7.05529L71.788 9.0055H73.1171Z" fill="#222222"/>
<path d="M78.1004 10.8756C77.7151 10.8756 77.3693 10.7976 77.0641 10.6426C76.7588 10.4876 76.5168 10.2703 76.3393 9.99047L77.0236 9.56402C77.1347 9.73252 77.278 9.86773 77.4555 9.96966C77.6331 10.0674 77.8408 10.1163 78.0806 10.1163C78.3641 10.1163 78.5749 10.0539 78.712 9.93014C78.8532 9.80533 78.9249 9.64203 78.9249 9.43713C78.9249 9.30399 78.8937 9.18854 78.8314 9.09077C78.7743 8.98884 78.685 8.91083 78.5656 8.85778C78.4462 8.79953 78.2956 8.77145 78.1139 8.77145H77.549V8.07249H78.1201C78.2613 8.07249 78.3818 8.04753 78.4794 7.99969C78.5812 7.94664 78.657 7.87591 78.7058 7.78646C78.7587 7.69805 78.7857 7.59612 78.7857 7.48067C78.7857 7.36521 78.7566 7.256 78.6995 7.16759C78.6466 7.07918 78.5645 7.01053 78.4534 6.96165C78.3475 6.9086 78.2094 6.88156 78.0412 6.88156C77.8024 6.88156 77.5957 6.93045 77.4233 7.02822C77.251 7.12183 77.1181 7.2456 77.0246 7.40058L76.3663 6.93461C76.5438 6.6725 76.7692 6.46239 77.0443 6.30221C77.3237 6.14204 77.6694 6.06299 78.0806 6.06299C78.4088 6.06299 78.6902 6.11395 78.9249 6.21589C79.1595 6.31366 79.3413 6.45823 79.47 6.64857C79.6029 6.83892 79.6694 7.06982 79.6694 7.34129C79.6694 7.55868 79.6164 7.76254 79.5095 7.95392C79.4077 8.1401 79.2436 8.28468 79.0173 8.38661C79.2831 8.4667 79.4866 8.60815 79.6289 8.81306C79.7753 9.01692 79.848 9.25511 79.848 9.52554C79.848 9.81885 79.7701 10.0674 79.6154 10.2713C79.4648 10.471 79.2592 10.6218 78.9975 10.7237C78.7359 10.8257 78.4368 10.8766 78.1004 10.8766V10.8756Z" fill="#222222"/>
<path d="M80.2311 11.7348V10.0238H80.4834C80.6029 10.0238 80.7077 9.97697 80.796 9.8844C80.8843 9.79079 80.9601 9.64309 81.0224 9.43819C81.0847 9.23433 81.1335 8.97014 81.1688 8.64562C81.2082 8.31695 81.2352 7.91962 81.2487 7.45365L81.2882 6.10254H84.4314V10.0238H85.0565V11.7348H84.2528V10.8299H81.0359V11.7348H80.2322H80.2311ZM81.581 10.0238H83.5218V6.90863H82.12L82.1065 7.5743C82.093 8.03612 82.067 8.42824 82.0265 8.75276C81.9912 9.07623 81.9382 9.3425 81.8666 9.55156C81.8001 9.76063 81.7046 9.91769 81.581 10.0238Z" fill="#222222"/>
<path d="M87.7813 10.8621C87.4355 10.8621 87.1208 10.7956 86.8374 10.6624C86.558 10.5293 86.3171 10.3494 86.1126 10.1236C85.9132 9.89274 85.7585 9.63583 85.6474 9.35188C85.5363 9.06377 85.4812 8.76837 85.4812 8.46674C85.4812 8.16511 85.5383 7.85203 85.6536 7.56808C85.773 7.27997 85.935 7.0241 86.1385 6.80255C86.3472 6.57581 86.5902 6.39899 86.8696 6.27002C87.153 6.13688 87.4635 6.07031 87.8 6.07031C88.1364 6.07031 88.451 6.13896 88.7304 6.27626C89.0138 6.41355 89.2558 6.59765 89.4552 6.82856C89.6545 7.05946 89.8092 7.31637 89.9204 7.60032C90.0315 7.88428 90.0865 8.17759 90.0865 8.47922C90.0865 8.78086 90.0294 9.08977 89.9141 9.37788C89.7989 9.66183 89.6369 9.91666 89.4292 10.1434C89.2257 10.365 88.9816 10.5407 88.6982 10.6697C88.4188 10.7987 88.1135 10.8632 87.7813 10.8632V10.8621ZM86.4127 8.4657C86.4127 8.66956 86.4438 8.86719 86.5061 9.05857C86.5684 9.24891 86.6567 9.42053 86.7719 9.57134C86.8914 9.718 87.0357 9.83553 87.2039 9.92394C87.3763 10.0082 87.5715 10.0508 87.7885 10.0508C88.0056 10.0508 88.207 10.0061 88.3804 9.9177C88.5528 9.82409 88.6971 9.7024 88.8124 9.55158C88.9276 9.3966 89.0138 9.22499 89.072 9.0388C89.1343 8.84846 89.1654 8.65708 89.1654 8.46674C89.1654 8.26288 89.1322 8.06734 89.0658 7.88116C89.0035 7.69081 88.9131 7.52127 88.7937 7.37566C88.6784 7.22484 88.5341 7.10731 88.3617 7.02306C88.1935 6.93465 88.0024 6.88992 87.7906 6.88992C87.5642 6.88992 87.3649 6.93673 87.1925 7.0293C87.0243 7.11771 86.882 7.23836 86.7668 7.38918C86.6515 7.54 86.5632 7.7085 86.5009 7.89468C86.4438 8.08086 86.4147 8.27224 86.4147 8.46674L86.4127 8.4657Z" fill="#222222"/>
<path d="M90.7916 10.8288V6.10254H92.7915C93.0086 6.10254 93.2079 6.14726 93.3897 6.23567C93.5714 6.32408 93.7282 6.44474 93.8611 6.59555C93.9982 6.74637 94.1051 6.91487 94.1799 7.10105C94.2557 7.28723 94.2931 7.47861 94.2931 7.67311C94.2931 7.93938 94.2308 8.19213 94.1072 8.4324C93.9836 8.67163 93.8123 8.86717 93.5953 9.01798C93.3782 9.1688 93.1207 9.24473 92.8248 9.24473H91.7085V10.8288H90.7916ZM91.7085 8.43968H92.7718C92.8829 8.43968 92.9826 8.40848 93.0709 8.34607C93.1591 8.28366 93.2308 8.19525 93.2837 8.0798C93.3367 7.96019 93.3637 7.82497 93.3637 7.67415C93.3637 7.50982 93.3326 7.37044 93.2702 7.25499C93.2131 7.13953 93.1353 7.05321 93.0376 6.99496C92.9442 6.93671 92.8424 6.90863 92.7324 6.90863H91.7085V8.43968Z" fill="#222222"/>
<path d="M96.9452 10.8621C96.5994 10.8621 96.2848 10.7956 96.0013 10.6624C95.722 10.5293 95.4811 10.3494 95.2765 10.1236C95.0771 9.89274 94.9224 9.63583 94.8113 9.35188C94.7002 9.06377 94.6452 8.76837 94.6452 8.46674C94.6452 8.16511 94.7023 7.85203 94.8175 7.56808C94.9369 7.27997 95.0989 7.0241 95.3025 6.80255C95.5112 6.57581 95.7542 6.39899 96.0335 6.27002C96.317 6.13688 96.6274 6.07031 96.9639 6.07031C97.3003 6.07031 97.615 6.13896 97.8943 6.27626C98.1778 6.41355 98.4197 6.59765 98.6191 6.82856C98.8184 7.05946 98.9732 7.31637 99.0843 7.60032C99.1954 7.88428 99.2504 8.17759 99.2504 8.47922C99.2504 8.78086 99.1933 9.08977 99.078 9.37788C98.9628 9.66183 98.8008 9.91666 98.5931 10.1434C98.3896 10.365 98.1456 10.5407 97.8621 10.6697C97.5828 10.7987 97.2775 10.8632 96.9452 10.8632V10.8621ZM95.5766 8.4657C95.5766 8.66956 95.6077 8.86719 95.67 9.05857C95.7323 9.24891 95.8206 9.42053 95.9359 9.57134C96.0553 9.718 96.1996 9.83553 96.3678 9.92394C96.5402 10.0082 96.7354 10.0508 96.9525 10.0508C97.1695 10.0508 97.3709 10.0061 97.5443 9.9177C97.7167 9.82409 97.861 9.7024 97.9763 9.55158C98.0916 9.3966 98.1778 9.22499 98.2359 9.0388C98.2982 8.84846 98.3294 8.65708 98.3294 8.46674C98.3294 8.26288 98.2961 8.06734 98.2297 7.88116C98.1674 7.69081 98.077 7.52127 97.9576 7.37566C97.8424 7.22484 97.698 7.10731 97.5257 7.02306C97.3574 6.93465 97.1664 6.88992 96.9545 6.88992C96.7282 6.88992 96.5288 6.93673 96.3564 7.0293C96.1882 7.11771 96.0459 7.23836 95.9307 7.38918C95.8154 7.54 95.7272 7.7085 95.6649 7.89468C95.6077 8.08086 95.5787 8.27224 95.5787 8.46674L95.5766 8.4657Z" fill="#222222"/>
<path d="M103.756 9.61091C103.756 9.87718 103.687 10.1008 103.55 10.2828C103.413 10.4607 103.226 10.5959 102.992 10.6885C102.761 10.7821 102.509 10.8279 102.235 10.8279H99.9554V6.10156H102.481C102.702 6.10156 102.893 6.16189 103.053 6.2815C103.217 6.39696 103.341 6.54777 103.425 6.73395C103.514 6.91597 103.558 7.10631 103.558 7.30602C103.558 7.53276 103.5 7.74703 103.385 7.95193C103.27 8.15579 103.102 8.30661 102.881 8.40438C103.151 8.48447 103.364 8.628 103.519 8.83707C103.679 9.04509 103.758 9.30304 103.758 9.60883L103.756 9.61091ZM102.833 9.43826C102.833 9.31864 102.809 9.21151 102.76 9.11894C102.711 9.02117 102.645 8.94628 102.561 8.89219C102.481 8.83395 102.388 8.80587 102.281 8.80587H100.872V10.0509H102.235C102.346 10.0509 102.445 10.0238 102.534 9.97079C102.627 9.91359 102.7 9.83766 102.753 9.74405C102.806 9.65044 102.833 9.54851 102.833 9.43826ZM100.872 6.88893V8.0809H102.096C102.197 8.0809 102.291 8.05594 102.375 8.0081C102.459 7.95921 102.525 7.89056 102.574 7.80215C102.627 7.71374 102.654 7.60661 102.654 7.48284C102.654 7.35906 102.63 7.25817 102.581 7.16976C102.537 7.08135 102.476 7.0127 102.396 6.96382C102.321 6.91493 102.234 6.89101 102.136 6.89101H100.873L100.872 6.88893Z" fill="#222222"/>
<path d="M104.485 10.8288V6.10254H105.396V7.79377H106.367C106.716 7.79377 107.01 7.85617 107.25 7.97995C107.493 8.10372 107.677 8.2795 107.802 8.50625C107.93 8.72779 107.995 8.99198 107.995 9.29882C107.995 9.60565 107.932 9.86672 107.808 10.0976C107.688 10.3285 107.511 10.5085 107.276 10.6364C107.041 10.7643 106.756 10.8299 106.419 10.8299H104.485V10.8288ZM105.396 10.0841H106.293C106.47 10.0841 106.617 10.0487 106.732 9.97801C106.846 9.90728 106.931 9.81367 106.984 9.69822C107.037 9.57861 107.064 9.44547 107.064 9.29882C107.064 9.16984 107.037 9.04815 106.984 8.93269C106.936 8.81724 106.854 8.72467 106.738 8.6529C106.627 8.57698 106.477 8.53953 106.287 8.53953H105.396V10.0841Z" fill="#222222"/>
<path d="M108.545 10.8288L109.701 8.93166C109.409 8.83388 109.178 8.66539 109.01 8.42616C108.846 8.18173 108.764 7.89362 108.764 7.56078C108.764 7.28099 108.831 7.0324 108.964 6.81502C109.096 6.59347 109.28 6.41977 109.515 6.296C109.75 6.16703 110.025 6.10254 110.339 6.10254H112.179V10.8288H111.27V9.04503H110.625L109.575 10.8288H108.545ZM110.445 8.25974H111.27V6.88159H110.459C110.322 6.88159 110.193 6.90863 110.074 6.96167C109.958 7.01056 109.865 7.08545 109.794 7.18842C109.728 7.28619 109.695 7.40997 109.695 7.56078C109.695 7.7116 109.726 7.84057 109.787 7.94667C109.849 8.0486 109.939 8.1266 110.053 8.17965C110.168 8.2327 110.299 8.25974 110.445 8.25974Z" fill="#222222"/>
<path d="M45.6423 21.8333V17.1736H49.2642V17.8861H46.4928V19.0312H47.8686C48.4273 19.0312 48.8499 19.1488 49.1375 19.3838C49.4304 19.6147 49.5757 19.9517 49.5757 20.3959C49.5757 20.84 49.4138 21.2082 49.0908 21.4609C48.772 21.7095 48.3203 21.8333 47.7347 21.8333H45.6413H45.6423ZM46.4938 21.1676H47.69C48.0223 21.1676 48.2746 21.1031 48.448 20.9742C48.6215 20.8452 48.7076 20.659 48.7076 20.4146C48.7076 19.9351 48.3691 19.6959 47.6911 19.6959H46.4948V21.1666L46.4938 21.1676Z" fill="#5050EB"/>
<path d="M50.4273 21.1011C50.6713 21.1854 50.8863 21.2072 51.0721 21.1677C51.258 21.1282 51.4242 20.993 51.5706 20.762L51.7969 20.4094L51.8831 20.3158L53.5051 17.1736H54.3555L52.3348 20.9347C52.1708 21.2499 51.9755 21.4891 51.7502 21.6534C51.5249 21.8178 51.2809 21.9083 51.0192 21.9259C50.7617 21.9478 50.4938 21.8989 50.2155 21.7793L50.4283 21.1001L50.4273 21.1011ZM51.8624 21.0606L49.7887 17.1726H50.7129L52.3348 20.3949L51.8634 21.0606H51.8624Z" fill="#5050EB"/>
<path d="M54.5424 21.3735L54.8218 20.7411C55.0211 20.8784 55.2382 20.9856 55.4728 21.0604C55.7117 21.1312 55.9495 21.1686 56.1841 21.1738C56.4188 21.178 56.6317 21.152 56.8217 21.0937C57.0169 21.0365 57.1717 20.9491 57.2869 20.8337C57.4022 20.7182 57.4593 20.5737 57.4593 20.401C57.4593 20.1919 57.3731 20.037 57.1997 19.935C57.0315 19.8289 56.8009 19.7749 56.5081 19.7749H55.4251V19.0957H56.4417C56.7033 19.0957 56.9048 19.0426 57.046 18.9355C57.1924 18.8294 57.2651 18.6848 57.2651 18.5028C57.2651 18.352 57.2163 18.2272 57.1187 18.1304C57.0252 18.0327 56.8975 17.9599 56.7335 17.911C56.5735 17.8621 56.3929 17.8402 56.1883 17.8444C55.9889 17.8444 55.7812 17.8756 55.5632 17.938C55.3462 17.9963 55.1406 18.0826 54.9453 18.198L54.6733 17.4991C54.9661 17.3441 55.2714 17.2349 55.5902 17.1725C55.9142 17.1101 56.2257 17.0924 56.5268 17.1194C56.8279 17.1465 57.0979 17.2151 57.3378 17.3254C57.5818 17.4367 57.776 17.5833 57.9224 17.7643C58.0688 17.9422 58.1415 18.1523 58.1415 18.3967C58.1415 18.6182 58.0813 18.8159 57.9619 18.9896C57.8466 19.1581 57.6867 19.2891 57.4832 19.3827C57.2796 19.4763 57.0419 19.5221 56.7719 19.5221L56.8051 19.3089C57.1104 19.3089 57.3762 19.3619 57.6026 19.4691C57.8331 19.571 58.0107 19.7135 58.1342 19.8955C58.263 20.0775 58.3274 20.2887 58.3274 20.5279C58.3274 20.7546 58.2703 20.9564 58.155 21.1332C58.0397 21.3059 57.883 21.4526 57.6836 21.5722C57.4842 21.6876 57.2558 21.774 56.9993 21.8322C56.7428 21.8853 56.4718 21.905 56.1883 21.8925C55.9048 21.879 55.6213 21.8301 55.3379 21.7459C55.0585 21.6616 54.7927 21.5379 54.5404 21.3735H54.5424Z" fill="#5050EB"/>
<path d="M63.3137 21.8999C62.9502 21.8999 62.6159 21.8395 62.3106 21.7199C62.0053 21.6003 61.7395 21.4339 61.5131 21.2207C61.2867 21.0033 61.1123 20.7505 60.9877 20.4614C60.8641 20.1681 60.8018 19.8487 60.8018 19.5024C60.8018 19.156 60.8641 18.8388 60.9877 18.5507C61.1123 18.2574 61.2867 18.0046 61.5131 17.7914C61.7395 17.574 62.0053 17.4055 62.3106 17.2859C62.6159 17.1663 62.9482 17.106 63.3074 17.106C63.6667 17.106 64.0032 17.1663 64.3043 17.2859C64.6096 17.4055 64.8754 17.574 65.1018 17.7914C65.3282 18.0046 65.5026 18.2574 65.6272 18.5507C65.7518 18.8388 65.8131 19.156 65.8131 19.5024C65.8131 19.8487 65.7508 20.1681 65.6272 20.4614C65.5036 20.7547 65.3282 21.0074 65.1018 21.2207C64.8754 21.4339 64.6096 21.6003 64.3043 21.7199C64.0032 21.8395 63.673 21.8999 63.3137 21.8999ZM63.3064 21.1406C63.5411 21.1406 63.7581 21.101 63.9575 21.021C64.1568 20.9409 64.3292 20.8275 64.4756 20.6819C64.622 20.5311 64.7352 20.3574 64.8141 20.1629C64.8983 19.9632 64.9408 19.7437 64.9408 19.5034C64.9408 19.2632 64.8993 19.0458 64.8141 18.8513C64.7342 18.6516 64.621 18.4789 64.4756 18.3323C64.3292 18.1814 64.1568 18.066 63.9575 17.9859C63.7581 17.9058 63.5411 17.8663 63.3064 17.8663C63.0717 17.8663 62.8547 17.9058 62.6553 17.9859C62.4601 18.066 62.2877 18.1814 62.1372 18.3323C61.9908 18.4789 61.8755 18.6516 61.7914 18.8513C61.7114 19.0468 61.672 19.2642 61.672 19.5034C61.672 19.7427 61.7114 19.9559 61.7914 20.1556C61.8755 20.3553 61.9908 20.53 62.1372 20.6819C62.2836 20.8285 62.456 20.9419 62.6553 21.021C62.8547 21.101 63.0717 21.1406 63.3064 21.1406Z" fill="#5050EB"/>
<path d="M66.7674 21.8333V17.1736H68.6812C69.0934 17.1736 69.4455 17.2402 69.7383 17.3733C70.0353 17.5064 70.2637 17.6978 70.4226 17.9453C70.5825 18.1939 70.6614 18.4893 70.6614 18.8305C70.6614 19.1716 70.5815 19.467 70.4226 19.7156C70.2627 19.9642 70.0353 20.1546 69.7383 20.2877C69.4455 20.4208 69.0934 20.4874 68.6812 20.4874H67.2461L67.6314 20.0817V21.8323H66.7674V21.8333ZM67.6314 20.1754L67.2461 19.7562H68.6417C69.0228 19.7562 69.3084 19.6761 69.4995 19.517C69.6947 19.3526 69.7923 19.1238 69.7923 18.8315C69.7923 18.5393 69.6947 18.3052 69.4995 18.1461C69.3084 17.9859 69.0228 17.9069 68.6417 17.9069H67.2461L67.6314 17.4804V20.1764V20.1754Z" fill="#5050EB"/>
<path d="M71.1847 21.8999C71.1089 21.8999 71.0341 21.8936 70.9583 21.8801C70.8825 21.8666 70.8005 21.851 70.7122 21.8333L70.7724 21.0813C70.8347 21.099 70.9012 21.1083 70.9718 21.1083C71.1577 21.1083 71.3062 21.0324 71.4173 20.8816C71.5284 20.7266 71.6073 20.4999 71.6561 20.2024C71.7049 19.9049 71.7382 19.5388 71.7558 19.104L71.8223 17.1736H75.2448V21.8333H74.3944V17.6926L74.5937 17.9058H72.3809L72.5668 17.6864L72.5201 19.0708C72.5066 19.5326 72.4754 19.9382 72.4266 20.2887C72.3778 20.6393 72.302 20.9346 72.2002 21.1739C72.1026 21.4089 71.9718 21.5889 71.8077 21.7127C71.6437 21.8364 71.436 21.8988 71.1826 21.8988L71.1847 21.8999Z" fill="#5050EB"/>
<path d="M78.7141 21.8999C78.3506 21.8999 78.0163 21.8395 77.711 21.7199C77.4057 21.6003 77.1399 21.4339 76.9135 21.2207C76.6871 21.0033 76.5127 20.7505 76.3881 20.4614C76.2635 20.1681 76.2022 19.8487 76.2022 19.5024C76.2022 19.156 76.2645 18.8388 76.3881 18.5507C76.5116 18.2574 76.6871 18.0046 76.9135 17.7914C77.1399 17.574 77.4057 17.4055 77.711 17.2859C78.0163 17.1663 78.3486 17.106 78.7078 17.106C79.0671 17.106 79.4036 17.1663 79.7047 17.2859C80.01 17.4055 80.2758 17.574 80.5022 17.7914C80.7286 18.0046 80.903 18.2574 81.0276 18.5507C81.1512 18.8388 81.2135 19.156 81.2135 19.5024C81.2135 19.8487 81.1512 20.1681 81.0276 20.4614C80.903 20.7547 80.7286 21.0074 80.5022 21.2207C80.2758 21.4339 80.01 21.6003 79.7047 21.7199C79.4036 21.8395 79.0734 21.8999 78.7141 21.8999ZM78.7078 21.1406C78.9425 21.1406 79.1595 21.101 79.3589 21.021C79.5583 20.9409 79.7307 20.8275 79.8771 20.6819C80.0235 20.5311 80.1367 20.3574 80.2156 20.1629C80.2997 19.9632 80.3423 19.7437 80.3423 19.5034C80.3423 19.2632 80.2997 19.0458 80.2156 18.8513C80.1356 18.6516 80.0224 18.4789 79.8771 18.3323C79.7307 18.1814 79.5583 18.066 79.3589 17.9859C79.1595 17.9058 78.9425 17.8663 78.7078 17.8663C78.4732 17.8663 78.2561 17.9058 78.0568 17.9859C77.8616 18.066 77.6892 18.1814 77.5386 18.3323C77.3922 18.4789 77.2769 18.6516 77.1928 18.8513C77.1129 19.0468 77.0734 19.2642 77.0734 19.5034C77.0734 19.7427 77.1129 19.9559 77.1928 20.1556C77.2769 20.3553 77.3922 20.53 77.5386 20.6819C77.685 20.8285 77.8574 20.9419 78.0568 21.021C78.2561 21.101 78.4732 21.1406 78.7078 21.1406Z" fill="#5050EB"/>
<path d="M82.1751 21.8333V17.1736H84.255C84.7773 17.1736 85.1854 17.2776 85.4782 17.4867C85.771 17.6905 85.9164 17.9859 85.9164 18.3718C85.9164 18.7577 85.7773 19.0489 85.4979 19.2569C85.2186 19.4608 84.851 19.5627 84.3952 19.5627L84.5146 19.3235C85.0327 19.3235 85.4335 19.4275 85.717 19.6366C86.0005 19.8456 86.1428 20.1473 86.1428 20.5415C86.1428 20.9357 85.9943 21.2623 85.6973 21.4932C85.4003 21.7199 84.9621 21.8323 84.3817 21.8323H82.1751V21.8333ZM83.0255 21.1676H84.3547C84.6558 21.1676 84.8842 21.1125 85.039 21.0012C85.1937 20.8858 85.2716 20.711 85.2716 20.4749C85.2716 20.2388 85.1937 20.0693 85.039 19.9621C84.8842 19.8508 84.6558 19.7957 84.3547 19.7957H83.0255V21.1666V21.1676ZM83.0255 19.1633H84.1823C84.4616 19.1633 84.6745 19.1082 84.8199 18.9969C84.9663 18.8815 85.039 18.7171 85.039 18.5039C85.039 18.2907 84.9663 18.1159 84.8199 18.0046C84.6735 17.8933 84.4606 17.8382 84.1823 17.8382H83.0255V19.1633Z" fill="#5050EB"/>
<path d="M89.2662 21.8999C88.9121 21.8999 88.5819 21.8426 88.2756 21.7272C87.9744 21.6076 87.7107 21.4412 87.4843 21.2279C87.2631 21.0106 87.0897 20.7557 86.9662 20.4624C86.8426 20.1691 86.7803 19.8498 86.7803 19.5034C86.7803 19.1571 86.8426 18.8378 86.9662 18.5444C87.0908 18.2511 87.2652 17.9984 87.4916 17.7852C87.718 17.5678 87.9807 17.4013 88.2828 17.2859C88.584 17.1663 88.9142 17.106 89.2735 17.106C89.6545 17.106 90.0024 17.1725 90.317 17.3057C90.6317 17.4346 90.8975 17.6271 91.1145 17.885L90.5559 18.4113C90.3877 18.2293 90.1997 18.0941 89.991 18.0057C89.7823 17.912 89.5569 17.8663 89.3129 17.8663C89.0689 17.8663 88.8456 17.9058 88.6421 17.9859C88.4428 18.066 88.2683 18.1794 88.1167 18.325C87.9703 18.4716 87.855 18.6443 87.7709 18.844C87.691 19.0437 87.6515 19.2632 87.6515 19.5034C87.6515 19.7437 87.691 19.9632 87.7709 20.1629C87.855 20.3626 87.9703 20.5352 88.1167 20.6819C88.2673 20.8285 88.4428 20.9419 88.6421 21.021C88.8456 21.101 89.0699 21.1406 89.3129 21.1406C89.5559 21.1406 89.7823 21.0958 89.991 21.0074C90.1997 20.9138 90.3877 20.7744 90.5559 20.5883L91.1145 21.1208C90.8975 21.3736 90.6317 21.567 90.317 21.7002C90.0024 21.8333 89.6525 21.8999 89.2672 21.8999H89.2662Z" fill="#5050EB"/>
<path d="M94.993 21.8333L93.4178 19.5638L94.1156 19.1311L95.9701 21.8333H94.993ZM91.9162 21.8333V17.1736H92.7667V21.8333H91.9162ZM92.5071 19.8696V19.1238H94.0751V19.8696H92.5071ZM94.1955 19.6033L93.4043 19.4972L94.993 17.1736H95.9099L94.1955 19.6033Z" fill="#5050EB"/>
<path d="M98.7032 21.8999C98.3398 21.8999 98.0054 21.8395 97.7001 21.7199C97.3948 21.6003 97.129 21.4339 96.9026 21.2207C96.6763 21.0033 96.5018 20.7505 96.3772 20.4614C96.2526 20.1681 96.1913 19.8487 96.1913 19.5024C96.1913 19.156 96.2536 18.8388 96.3772 18.5507C96.5008 18.2574 96.6763 18.0046 96.9026 17.7914C97.129 17.574 97.3948 17.4055 97.7001 17.2859C98.0054 17.1663 98.3377 17.106 98.697 17.106C99.0562 17.106 99.3927 17.1663 99.6938 17.2859C99.9991 17.4055 100.265 17.574 100.491 17.7914C100.718 18.0046 100.892 18.2574 101.017 18.5507C101.14 18.8388 101.203 19.156 101.203 19.5024C101.203 19.8487 101.14 20.1681 101.017 20.4614C100.892 20.7547 100.718 21.0074 100.491 21.2207C100.265 21.4339 99.9991 21.6003 99.6938 21.7199C99.3927 21.8395 99.0625 21.8999 98.7032 21.8999ZM98.697 21.1406C98.9316 21.1406 99.1487 21.101 99.348 21.021C99.5474 20.9409 99.7198 20.8275 99.8662 20.6819C100.013 20.5311 100.126 20.3574 100.205 20.1629C100.289 19.9632 100.331 19.7437 100.331 19.5034C100.331 19.2632 100.289 19.0458 100.205 18.8513C100.125 18.6516 100.012 18.4789 99.8662 18.3323C99.7198 18.1814 99.5474 18.066 99.348 17.9859C99.1487 17.9058 98.9316 17.8663 98.697 17.8663C98.4623 17.8663 98.2453 17.9058 98.0459 17.9859C97.8507 18.066 97.6783 18.1814 97.5277 18.3323C97.3813 18.4789 97.2661 18.6516 97.182 18.8513C97.102 19.0468 97.0625 19.2642 97.0625 19.5034C97.0625 19.7427 97.102 19.9559 97.182 20.1556C97.2661 20.3553 97.3813 20.53 97.5277 20.6819C97.6741 20.8285 97.8465 20.9419 98.0459 21.021C98.2453 21.101 98.4623 21.1406 98.697 21.1406Z" fill="#5050EB"/>
<path d="M102.164 21.8333V17.1736H103.015V20.4822L105.513 17.1736H106.318V21.8333H105.466V18.532L102.968 21.8333H102.164ZM104.23 16.8605C103.832 16.8605 103.531 16.7762 103.327 16.6077C103.128 16.4392 103.025 16.2021 103.021 15.8953H103.626C103.63 16.0596 103.683 16.1855 103.785 16.2749C103.892 16.3633 104.04 16.408 104.23 16.408C104.42 16.408 104.569 16.3633 104.676 16.2749C104.786 16.1865 104.844 16.0596 104.848 15.8953H105.446C105.442 16.2011 105.338 16.4392 105.134 16.6077C104.93 16.7762 104.629 16.8605 104.23 16.8605Z" fill="#5050EB"/>
<path d="M111.618 21.8999C111.255 21.8999 110.92 21.8395 110.614 21.7199C110.309 21.6003 110.043 21.4339 109.817 21.2207C109.591 21.0033 109.416 20.7505 109.292 20.4614C109.168 20.1681 109.106 19.8487 109.106 19.5024C109.106 19.156 109.168 18.8388 109.292 18.5507C109.416 18.2574 109.591 18.0046 109.817 17.7914C110.043 17.574 110.309 17.4055 110.614 17.2859C110.92 17.1663 111.252 17.106 111.611 17.106C111.971 17.106 112.307 17.1663 112.608 17.2859C112.913 17.4055 113.179 17.574 113.406 17.7914C113.632 18.0046 113.806 18.2574 113.931 18.5507C114.055 18.8388 114.117 19.156 114.117 19.5024C114.117 19.8487 114.055 20.1681 113.931 20.4614C113.806 20.7547 113.632 21.0074 113.406 21.2207C113.179 21.4339 112.913 21.6003 112.608 21.7199C112.307 21.8395 111.977 21.8999 111.618 21.8999ZM111.611 21.1406C111.846 21.1406 112.063 21.101 112.262 21.021C112.462 20.9409 112.635 20.8275 112.781 20.6819C112.927 20.5311 113.04 20.3574 113.12 20.1629C113.204 19.9632 113.246 19.7437 113.246 19.5034C113.246 19.2632 113.204 19.0458 113.12 18.8513C113.04 18.6516 112.927 18.4789 112.781 18.3323C112.635 18.1814 112.462 18.066 112.262 17.9859C112.063 17.9058 111.846 17.8663 111.611 17.8663C111.377 17.8663 111.16 17.9058 110.96 17.9859C110.765 18.066 110.593 18.1814 110.442 18.3323C110.296 18.4789 110.18 18.6516 110.096 18.8513C110.016 19.0468 109.977 19.2642 109.977 19.5034C109.977 19.7427 110.016 19.9559 110.096 20.1556C110.18 20.3553 110.296 20.53 110.442 20.6819C110.587 20.8285 110.761 20.9419 110.96 21.021C111.16 21.1 111.377 21.1406 111.611 21.1406Z" fill="#5050EB"/>
<path d="M115.079 21.8333V17.1736H118.7V17.8861H115.929V19.0312H117.305C117.864 19.0312 118.286 19.1488 118.575 19.3838C118.867 19.6147 119.013 19.9517 119.013 20.3959C119.013 20.84 118.851 21.2082 118.528 21.4609C118.209 21.7095 117.757 21.8333 117.172 21.8333H115.079ZM115.929 21.1676H117.125C117.458 21.1676 117.711 21.1031 117.883 20.9742C118.056 20.8452 118.143 20.659 118.143 20.4146C118.143 19.9351 117.803 19.6959 117.125 19.6959H115.929V21.1666V21.1676Z" fill="#5050EB"/>
<path d="M119.756 21.8999C119.681 21.8999 119.605 21.8936 119.53 21.8801C119.454 21.8666 119.372 21.851 119.284 21.8333L119.343 21.0813C119.406 21.099 119.472 21.1083 119.543 21.1083C119.73 21.1083 119.878 21.0324 119.988 20.8816C120.099 20.7266 120.179 20.4999 120.228 20.2024C120.277 19.9049 120.31 19.5388 120.328 19.104L120.394 17.1736H123.817V21.8333H122.965V17.6926L123.165 17.9058H120.952L121.138 17.6864L121.092 19.0708C121.078 19.5326 121.047 19.9382 120.998 20.2887C120.95 20.6393 120.875 20.9346 120.772 21.1739C120.676 21.4089 120.545 21.5889 120.381 21.7127C120.217 21.8364 120.008 21.8988 119.756 21.8988V21.8999Z" fill="#5050EB"/>
<path d="M124.533 21.8333L126.627 17.1736H127.478L129.578 21.8333H128.674L126.873 17.6333H127.218L125.424 21.8333H124.533ZM125.497 20.7547L125.729 20.0755H128.242L128.475 20.7547H125.497Z" fill="#5050EB"/>
<path d="M132.366 21.8999C132.012 21.8999 131.681 21.8426 131.376 21.7272C131.075 21.6076 130.811 21.4412 130.585 21.2279C130.364 21.0106 130.19 20.7557 130.067 20.4624C129.942 20.1691 129.881 19.8498 129.881 19.5034C129.881 19.1571 129.942 18.8378 130.067 18.5444C130.19 18.2511 130.366 17.9984 130.591 17.7852C130.817 17.5678 131.081 17.4013 131.382 17.2859C131.684 17.1663 132.014 17.106 132.373 17.106C132.754 17.106 133.102 17.1725 133.416 17.3057C133.73 17.4346 133.996 17.6271 134.213 17.885L133.655 18.4113C133.487 18.2293 133.298 18.0941 133.091 18.0057C132.882 17.912 132.656 17.8663 132.412 17.8663C132.168 17.8663 131.945 17.9058 131.742 17.9859C131.542 18.066 131.367 18.1794 131.216 18.325C131.07 18.4716 130.955 18.6443 130.87 18.844C130.79 19.0437 130.751 19.2632 130.751 19.5034C130.751 19.7437 130.79 19.9632 130.87 20.1629C130.955 20.3626 131.07 20.5352 131.216 20.6819C131.367 20.8285 131.542 20.9419 131.742 21.021C131.945 21.101 132.168 21.1406 132.412 21.1406C132.656 21.1406 132.882 21.0958 133.091 21.0074C133.298 20.9138 133.487 20.7744 133.655 20.5883L134.213 21.1208C133.996 21.3736 133.73 21.567 133.416 21.7002C133.102 21.8333 132.751 21.8999 132.366 21.8999Z" fill="#5050EB"/>
<path d="M135.941 21.8333V17.6926L136.147 17.9058H134.405V17.1736H138.34V17.9058H136.598L136.798 17.6926V21.8333H135.941Z" fill="#5050EB"/>
<path d="M139.091 21.8333V17.1736H139.942V20.4822L142.441 17.1736H143.245V21.8333H142.395V18.532L139.896 21.8333H139.091Z" fill="#5050EB"/>
<path d="M46.2073 29.4533L45.2634 28.1688L46.2073 26.877H46.958L46.0339 28.1688L46.958 29.4533H46.2073ZM47.5904 29.4533L46.6465 28.1688L47.5904 26.877H48.3412L47.417 28.1688L48.3412 29.4533H47.5904Z" fill="#5050EB"/>
<path d="M52.2694 29.9463L50.6941 27.6768L51.3919 27.2441L53.2465 29.9463H52.2694ZM49.1926 29.9463V25.2866H50.0431V29.9463H49.1926ZM49.7845 27.9826V27.2368H51.3525V27.9826H49.7845ZM51.4719 27.7163L50.6806 27.6102L52.2694 25.2866H53.1863L51.4719 27.7163Z" fill="#5050EB"/>
<path d="M53.8332 29.9463V25.2866H55.7469C56.1592 25.2866 56.5112 25.3532 56.804 25.4863C57.101 25.6195 57.3294 25.8108 57.4883 26.0584C57.6482 26.307 57.7271 26.6024 57.7271 26.9435C57.7271 27.2847 57.6472 27.5801 57.4883 27.8287C57.3294 28.0773 57.101 28.2676 56.804 28.4007C56.5112 28.5339 56.1592 28.6004 55.7469 28.6004H54.3119L54.6971 28.1948V29.9453H53.8332V29.9463ZM54.6971 28.2884L54.3119 27.8692H55.7075C56.0885 27.8692 56.3741 27.7891 56.5652 27.63C56.7604 27.4657 56.858 27.2368 56.858 26.9446C56.858 26.6523 56.7604 26.4183 56.5652 26.2591C56.3751 26.099 56.0885 26.0199 55.7075 26.0199H54.3119L54.6971 25.5935V28.2894V28.2884Z" fill="#5050EB"/>
<path d="M57.7198 29.9463L59.8132 25.2866H60.6637L62.7633 29.9463H61.8599L60.0593 25.7464H60.4051L58.6108 29.9463H57.7198ZM58.6835 28.8677L58.9161 28.1885H61.4279L61.6605 28.8677H58.6835Z" fill="#5050EB"/>
<path d="M65.5524 30.0129C65.1983 30.0129 64.8681 29.9546 64.5618 29.8402C64.2606 29.7206 63.9969 29.5542 63.7705 29.341C63.5493 29.1236 63.3759 28.8688 63.2524 28.5754C63.1288 28.2821 63.0665 27.9628 63.0665 27.6165C63.0665 27.2701 63.1288 26.9508 63.2524 26.6575C63.377 26.3642 63.5514 26.1114 63.7778 25.8982C64.0042 25.6808 64.2669 25.5144 64.569 25.3989C64.8702 25.2793 65.2004 25.219 65.5597 25.219C65.9408 25.219 66.2886 25.2856 66.6033 25.4187C66.9179 25.5477 67.1837 25.7401 67.4007 25.998L66.8421 26.5243C66.6739 26.3423 66.4859 26.2071 66.2772 26.1187C66.0685 26.0251 65.8432 25.9793 65.5991 25.9793C65.3551 25.9793 65.1319 26.0188 64.9283 26.0989C64.729 26.179 64.5545 26.2924 64.4029 26.438C64.2565 26.5847 64.1412 26.7573 64.0571 26.957C63.9772 27.1567 63.9377 27.3762 63.9377 27.6165C63.9377 27.8567 63.9772 28.0762 64.0571 28.2759C64.1412 28.4756 64.2565 28.6483 64.4029 28.7949C64.5535 28.9416 64.729 29.0549 64.9283 29.134C65.1319 29.2141 65.3561 29.2536 65.5991 29.2536C65.8421 29.2536 66.0685 29.2089 66.2772 29.1205C66.4859 29.0269 66.6739 28.8875 66.8421 28.7013L67.4007 29.2338C67.1837 29.4866 66.9179 29.6801 66.6033 29.8132C66.2886 29.9463 65.9387 30.0129 65.5534 30.0129H65.5524Z" fill="#5050EB"/>
<path d="M71.4713 25.2866H72.3352V29.9463H71.4713V25.2866ZM69.0653 29.9463H68.2014V25.2866H69.0653V29.9463ZM71.5377 27.9493H68.9926V27.2108H71.5377V27.9493Z" fill="#5050EB"/>
<path d="M75.8004 30.0129C75.437 30.0129 75.1026 29.9526 74.7973 29.833C74.492 29.7133 74.2262 29.5469 73.9998 29.3337C73.7735 29.1163 73.599 28.8636 73.4744 28.5744C73.3508 28.2811 73.2885 27.9618 73.2885 27.6154C73.2885 27.2691 73.3508 26.9518 73.4744 26.6637C73.599 26.3704 73.7735 26.1177 73.9998 25.9044C74.2262 25.687 74.492 25.5185 74.7973 25.3989C75.1026 25.2793 75.4349 25.219 75.7942 25.219C76.1534 25.219 76.4899 25.2793 76.791 25.3989C77.0963 25.5185 77.3621 25.687 77.5885 25.9044C77.8149 26.1177 77.9893 26.3704 78.1139 26.6637C78.2385 26.9518 78.2998 27.2691 78.2998 27.6154C78.2998 27.9618 78.2375 28.2811 78.1139 28.5744C77.9904 28.8677 77.8149 29.1205 77.5885 29.3337C77.3621 29.5469 77.0963 29.7133 76.791 29.833C76.4899 29.9526 76.1597 30.0129 75.8004 30.0129ZM75.7931 29.2536C76.0278 29.2536 76.2448 29.2141 76.4442 29.134C76.6436 29.0539 76.8159 28.9405 76.9624 28.7949C77.1088 28.6441 77.222 28.4704 77.3009 28.2759C77.385 28.0762 77.4276 27.8567 77.4276 27.6165C77.4276 27.3762 77.386 27.1599 77.3009 26.9643C77.2209 26.7646 77.1077 26.5919 76.9624 26.4453C76.8159 26.2945 76.6436 26.179 76.4442 26.0989C76.2448 26.0188 76.0278 25.9793 75.7931 25.9793C75.5585 25.9793 75.3414 26.0188 75.1421 26.0989C74.9468 26.179 74.7745 26.2945 74.6239 26.4453C74.4775 26.5919 74.3622 26.7646 74.2781 26.9643C74.1982 27.1599 74.1587 27.3772 74.1587 27.6165C74.1587 27.8557 74.1982 28.0689 74.2781 28.2686C74.3622 28.4683 74.4775 28.6431 74.6239 28.7949C74.7703 28.9416 74.9427 29.0549 75.1421 29.134C75.3414 29.2141 75.5585 29.2536 75.7931 29.2536Z" fill="#5050EB"/>
<path d="M78.6654 29.4866L78.9447 28.8542C79.1441 28.9915 79.3611 29.0986 79.5958 29.1735C79.8346 29.2442 80.0724 29.2827 80.3071 29.2869C80.5417 29.291 80.7546 29.265 80.9446 29.2068C81.1398 29.1496 81.2946 29.0622 81.4098 28.9467C81.5251 28.8313 81.5822 28.6867 81.5822 28.514C81.5822 28.306 81.496 28.15 81.3226 28.0481C81.1544 27.942 80.9239 27.8879 80.631 27.8879H79.548V27.2087H80.5646C80.8263 27.2087 81.0277 27.1557 81.1689 27.0485C81.3153 26.9424 81.388 26.7979 81.388 26.6158C81.388 26.465 81.3392 26.3412 81.2416 26.2435C81.1482 26.1457 81.0204 26.0729 80.8564 26.024C80.6965 25.9751 80.5147 25.9533 80.3112 25.9574C80.1118 25.9574 79.9031 25.9886 79.6861 26.051C79.4691 26.1083 79.2624 26.1956 79.0683 26.3111L78.7962 25.6121C79.089 25.4571 79.3943 25.3479 79.7131 25.2855C80.036 25.2231 80.3486 25.2054 80.6497 25.2325C80.9509 25.2595 81.2208 25.3282 81.4607 25.4384C81.7047 25.5497 81.8989 25.6964 82.0453 25.8774C82.1917 26.0552 82.2644 26.2653 82.2644 26.5097C82.2644 26.7313 82.2042 26.9289 82.0848 27.1026C81.9695 27.2711 81.8096 27.4022 81.6061 27.4958C81.4026 27.5894 81.1648 27.6351 80.8948 27.6351L80.928 27.4219C81.2333 27.4219 81.4991 27.475 81.7255 27.5821C81.956 27.684 82.1326 27.8265 82.2572 28.0085C82.3859 28.1906 82.4503 28.4017 82.4503 28.6409C82.4503 28.8677 82.3932 29.0695 82.2779 29.2463C82.1627 29.4189 82.0059 29.5656 81.8065 29.6852C81.6071 29.8007 81.3787 29.887 81.1222 29.9452C80.8647 29.9983 80.5947 30.0181 80.3112 30.0056C80.0277 29.9921 79.7442 29.9432 79.4608 29.8589C79.1814 29.7747 78.9156 29.6499 78.6633 29.4866H78.6654Z" fill="#5050EB"/>
<path d="M85.5997 30.0129C85.2362 30.0129 84.9019 29.9526 84.5966 29.833C84.2913 29.7133 84.0255 29.5469 83.7991 29.3337C83.5727 29.1163 83.3983 28.8636 83.2737 28.5744C83.1501 28.2811 83.0878 27.9618 83.0878 27.6154C83.0878 27.2691 83.1501 26.9518 83.2737 26.6637C83.3983 26.3704 83.5727 26.1177 83.7991 25.9044C84.0255 25.687 84.2913 25.5185 84.5966 25.3989C84.9019 25.2793 85.2341 25.219 85.5934 25.219C85.9527 25.219 86.2892 25.2793 86.5903 25.3989C86.8956 25.5185 87.1614 25.687 87.3878 25.9044C87.6141 26.1177 87.7886 26.3704 87.9132 26.6637C88.0378 26.9518 88.0991 27.2691 88.0991 27.6154C88.0991 27.9618 88.0368 28.2811 87.9132 28.5744C87.7896 28.8677 87.6141 29.1205 87.3878 29.3337C87.1614 29.5469 86.8956 29.7133 86.5903 29.833C86.2892 29.9526 85.9589 30.0129 85.5997 30.0129ZM85.5934 29.2536C85.8281 29.2536 86.0451 29.2141 86.2445 29.134C86.4439 29.0539 86.6162 28.9405 86.7627 28.7949C86.9091 28.6441 87.0223 28.4704 87.1012 28.2759C87.1853 28.0762 87.2279 27.8567 87.2279 27.6165C87.2279 27.3762 87.1863 27.1599 87.1012 26.9643C87.0212 26.7646 86.908 26.5919 86.7627 26.4453C86.6162 26.2945 86.4439 26.179 86.2445 26.0989C86.0451 26.0188 85.8281 25.9793 85.5934 25.9793C85.3588 25.9793 85.1417 26.0188 84.9424 26.0989C84.7471 26.179 84.5748 26.2945 84.4242 26.4453C84.2778 26.5919 84.1625 26.7646 84.0784 26.9643C83.9985 27.1599 83.959 27.3772 83.959 27.6165C83.959 27.8557 83.9985 28.0689 84.0784 28.2686C84.1625 28.4683 84.2778 28.6431 84.4242 28.7949C84.5706 28.9416 84.743 29.0549 84.9424 29.134C85.1417 29.2141 85.3588 29.2536 85.5934 29.2536Z" fill="#5050EB"/>
<path d="M89.0533 29.9463V25.2866H90.9671C91.3793 25.2866 91.7313 25.3532 92.0242 25.4863C92.3211 25.6195 92.5496 25.8108 92.7085 26.0584C92.8684 26.307 92.9473 26.6024 92.9473 26.9435C92.9473 27.2847 92.8673 27.5801 92.7085 27.8287C92.5496 28.0773 92.3211 28.2676 92.0242 28.4007C91.7313 28.5339 91.3793 28.6004 90.9671 28.6004H89.532L89.9173 28.1948V29.9453H89.0533V29.9463ZM89.9173 28.2884L89.532 27.8692H90.9276C91.3087 27.8692 91.5943 27.7891 91.7853 27.63C91.9805 27.4657 92.0781 27.2368 92.0781 26.9446C92.0781 26.6523 91.9805 26.4183 91.7853 26.2591C91.5943 26.099 91.3087 26.0199 90.9276 26.0199H89.532L89.9173 25.5935V28.2894V28.2884Z" fill="#5050EB"/>
<path d="M94.5631 27.2233H96.8756V27.9358H94.5631V27.2233ZM94.6295 29.2203H97.2546V29.9463H93.7656V25.2866H97.1611V26.0126H94.6295V29.2214V29.2203Z" fill="#5050EB"/>
<path d="M101.487 25.2866H102.351V29.9463H101.487V25.2866ZM99.0812 29.9463H98.2172V25.2866H99.0812V29.9463ZM101.554 27.9493H99.0085V27.2108H101.554V27.9493Z" fill="#5050EB"/>
<path d="M105.796 30.0129C105.441 30.0129 105.112 29.9546 104.806 29.8402C104.505 29.7206 104.241 29.5542 104.016 29.341C103.793 29.1236 103.621 28.8688 103.496 28.5754C103.373 28.2821 103.311 27.9628 103.311 27.6165C103.311 27.2701 103.373 26.9508 103.496 26.6575C103.621 26.3642 103.795 26.1114 104.022 25.8982C104.248 25.6808 104.511 25.5144 104.813 25.3989C105.114 25.2793 105.444 25.219 105.803 25.219C106.184 25.219 106.532 25.2856 106.846 25.4187C107.161 25.5477 107.427 25.7401 107.644 25.998L107.085 26.5243C106.917 26.3423 106.729 26.2071 106.52 26.1187C106.313 26.0251 106.086 25.9793 105.843 25.9793C105.6 25.9793 105.375 26.0188 105.171 26.0989C104.972 26.179 104.797 26.2924 104.647 26.438C104.501 26.5847 104.385 26.7573 104.301 26.957C104.221 27.1567 104.182 27.3762 104.182 27.6165C104.182 27.8567 104.221 28.0762 104.301 28.2759C104.385 28.4756 104.501 28.6483 104.647 28.7949C104.797 28.9416 104.972 29.0549 105.171 29.134C105.375 29.2141 105.599 29.2536 105.843 29.2536C106.087 29.2536 106.313 29.2089 106.52 29.1205C106.729 29.0269 106.917 28.8875 107.085 28.7013L107.644 29.2338C107.427 29.4866 107.161 29.6801 106.846 29.8132C106.532 29.9463 106.182 30.0129 105.796 30.0129Z" fill="#5050EB"/>
<path d="M111.523 29.9463L109.948 27.6768L110.646 27.2441L112.499 29.9463H111.523ZM108.445 29.9463V25.2866H109.297V29.9463H108.445ZM109.037 27.9826V27.2368H110.605V27.9826H109.037ZM110.726 27.7163L109.934 27.6102L111.523 25.2866H112.44L110.726 27.7163Z" fill="#5050EB"/>
<path d="M112.417 29.9463L114.511 25.2866H115.361L117.461 29.9463H116.557L114.756 25.7464H115.101L113.307 29.9463H112.417ZM113.381 28.8677L113.613 28.1885H116.125L116.358 28.8677H113.381Z" fill="#5050EB"/>
<path d="M120.645 29.9463V28.4548L120.858 28.6483H119.496C119.105 28.6483 118.769 28.5838 118.485 28.4548C118.206 28.3217 117.991 28.1334 117.841 27.889C117.69 27.6404 117.615 27.3429 117.615 26.9966C117.615 26.6502 117.694 26.3309 117.854 26.0781C118.014 25.8202 118.239 25.6257 118.532 25.4926C118.824 25.3553 119.168 25.2866 119.562 25.2866H121.496V29.9463H120.645ZM117.628 29.9463L118.778 28.2822H119.649L118.538 29.9463H117.628ZM120.645 28.175V25.7786L120.858 26.0178H119.588C119.234 26.0178 118.962 26.1 118.771 26.2643C118.585 26.4245 118.492 26.6637 118.492 26.9831C118.492 27.3024 118.581 27.527 118.758 27.6955C118.939 27.8599 119.205 27.942 119.555 27.942H120.858L120.645 28.175Z" fill="#5050EB"/>
<path d="M124.651 29.9463V25.2866H125.502V29.2141H127.848V25.2866H128.705V29.9463H124.651ZM128.598 30.9709V29.7331L128.792 29.9463H127.848V29.2141H129.396V30.9719H128.598V30.9709Z" fill="#5050EB"/>
<path d="M130.187 29.9463V25.2866H132.101C132.513 25.2866 132.865 25.3532 133.158 25.4863C133.455 25.6195 133.682 25.8108 133.842 26.0584C134.002 26.307 134.081 26.6024 134.081 26.9435C134.081 27.2847 134.002 27.5801 133.842 27.8287C133.682 28.0773 133.455 28.2676 133.158 28.4007C132.865 28.5339 132.513 28.6004 132.101 28.6004H130.666L131.051 28.1948V29.9453H130.187V29.9463ZM131.051 28.2884L130.666 27.8692H132.061C132.443 27.8692 132.728 27.7891 132.918 27.63C133.113 27.4657 133.211 27.2368 133.211 26.9446C133.211 26.6523 133.113 26.4183 132.918 26.2591C132.728 26.099 132.443 26.0199 132.061 26.0199H130.666L131.051 25.5935V28.2894V28.2884Z" fill="#5050EB"/>
<path d="M134.906 29.9463V25.2866H138.528V25.9991H135.756V27.1443H137.132C137.69 27.1443 138.113 27.2618 138.401 27.4969C138.694 27.7278 138.84 28.0648 138.84 28.5089C138.84 28.953 138.678 29.3212 138.354 29.574C138.035 29.8226 137.584 29.9463 136.999 29.9463H134.906ZM135.756 29.2807H136.952C137.285 29.2807 137.537 29.2162 137.71 29.0872C137.883 28.9582 137.969 28.7721 137.969 28.5276C137.969 28.0481 137.63 27.8089 136.952 27.8089H135.756V29.2796V29.2807Z" fill="#5050EB"/>
<path d="M140.085 29.4533H139.334L140.258 28.1688L139.334 26.877H140.085L141.029 28.1688L140.085 29.4533ZM141.467 29.4533H140.717L141.64 28.1688L140.717 26.877H141.467L142.411 28.1688L141.467 29.4533Z" fill="#5050EB"/>
<path d="M39.034 23.1533C36.6955 30.5704 29.7747 35.9457 21.5952 35.9457C13.4158 35.9457 6.4991 30.5704 4.16064 23.1533H10.0359C12.0991 27.4708 16.4999 30.4518 21.5952 30.4518C26.6906 30.4518 31.0965 27.4708 33.1598 23.1533H39.034Z" fill="#5050EB"/>
<path d="M35.3924 6.95553C35.3924 3.76237 32.8089 1.17456 29.621 1.17456C27.9814 1.17456 26.5048 1.86208 25.4539 2.96148L21.5859 6.82967L17.7179 2.96148C16.667 1.86208 15.1904 1.17456 13.5508 1.17456C10.363 1.17456 7.7784 3.76237 7.7784 6.95553C7.7784 8.55627 8.42844 10.0051 9.47825 11.0515L21.5776 23.1865L33.6894 11.0546C34.7413 10.0072 35.3924 8.55731 35.3924 6.95449V6.95553Z" fill="#5050EB"/>
</svg>
