<svg viewBox="0 0 32 32" xmlns="http://www.w3.org/2000/svg">
<g clip-path="url(#clip0_7_476)">
<path d="M24.0413 22.1561L29.752 27.8654L27.8653 29.7521L22.156 24.0414C20.0317 25.7444 17.3893 26.6706 14.6667 26.6667C8.04267 26.6667 2.66667 21.2907 2.66667 14.6667C2.66667 8.04275 8.04267 2.66675 14.6667 2.66675C21.2907 2.66675 26.6667 8.04275 26.6667 14.6667C26.6705 17.3894 25.7443 20.0317 24.0413 22.1561ZM21.3667 21.1667C23.0588 19.4266 24.0038 17.094 24 14.6667C24 9.50941 19.8227 5.33341 14.6667 5.33341C9.50934 5.33341 5.33334 9.50941 5.33334 14.6667C5.33334 19.8227 9.50934 24.0001 14.6667 24.0001C17.0939 24.0039 19.4265 23.0589 21.1667 21.3667L21.3667 21.1667Z"/>
</g>
<defs>
<clipPath id="clip0_7_476">
<rect width="32" height="32" fill="white"/>
</clipPath>
</defs>
</svg>
