<svg viewBox="0 0 118 54" fill="none" xmlns="http://www.w3.org/2000/svg">
<g clip-path="url(#clip0_10_399)">
<path fill-rule="evenodd" clip-rule="evenodd" d="M21.5287 53.4082C33.0801 53.4082 42.4444 44.3668 42.4444 33.2137C42.4444 22.0606 33.0801 13.0192 21.5287 13.0192C9.9772 13.0192 0.612916 22.0606 0.612916 33.2137C0.612916 44.3668 9.9772 53.4082 21.5287 53.4082ZM21.5287 54C33.4186 54 43.0573 44.6937 43.0573 33.2137C43.0573 21.7337 33.4186 12.4274 21.5287 12.4274C9.63871 12.4274 0 21.7337 0 33.2137C0 44.6937 9.63871 54 21.5287 54Z" fill="white"/>
<path fill-rule="evenodd" clip-rule="evenodd" d="M21.6819 49.5616C30.9484 49.5616 38.4605 42.3086 38.4605 33.3616C38.4605 24.4146 30.9484 17.1616 21.6819 17.1616C12.4154 17.1616 4.90332 24.4146 4.90332 33.3616C4.90332 42.3086 12.4154 49.5616 21.6819 49.5616ZM21.6819 50.1534C31.287 50.1534 39.0734 42.6355 39.0734 33.3616C39.0734 24.0878 31.287 16.5699 21.6819 16.5699C12.0768 16.5699 4.29041 24.0878 4.29041 33.3616C4.29041 42.6355 12.0768 50.1534 21.6819 50.1534Z" fill="white"/>
<path fill-rule="evenodd" clip-rule="evenodd" d="M21.6819 46.9726C29.4674 46.9726 35.7789 40.8787 35.7789 33.3617C35.7789 25.8446 29.4674 19.7507 21.6819 19.7507C13.8963 19.7507 7.58481 25.8446 7.58481 33.3617C7.58481 40.8787 13.8963 46.9726 21.6819 46.9726ZM21.6819 47.5644C29.806 47.5644 36.3918 41.2056 36.3918 33.3617C36.3918 25.5177 29.806 19.1589 21.6819 19.1589C13.5577 19.1589 6.97189 25.5177 6.97189 33.3617C6.97189 41.2056 13.5577 47.5644 21.6819 47.5644ZM6.93151 41.6821L3.21571 43.7163L2.91339 43.2016L6.62919 41.1673L6.93151 41.6821ZM21.2222 53.7411V49.8206H21.8351V53.7411H21.2222ZM42.7125 33.5096H38.7669V32.9178H42.7125V33.5096ZM21.2222 16.8658V12.6863H21.8351V16.8658H21.2222Z" fill="white"/>
<path fill-rule="evenodd" clip-rule="evenodd" d="M21.2222 47.2685V19.4178H21.8351V47.2685H21.2222Z" fill="white"/>
<path fill-rule="evenodd" clip-rule="evenodd" d="M36.162 33.5096H7.27838V32.9178H36.162V33.5096Z" fill="white"/>
<path fill-rule="evenodd" clip-rule="evenodd" d="M26.7906 43.1137C28.2139 40.6479 29.1135 37.2012 29.1135 33.3616C29.1135 29.5221 28.2139 26.0754 26.7906 23.6095C25.3563 21.1245 23.4714 19.7538 21.5287 19.7538C19.586 19.7538 17.701 21.1245 16.2667 23.6095C14.8435 26.0754 13.9438 29.5221 13.9438 33.3616C13.9438 37.2012 14.8435 40.6479 16.2667 43.1137C17.701 45.5988 19.586 46.9695 21.5287 46.9695C23.4714 46.9695 25.3563 45.5988 26.7906 43.1137ZM21.5287 47.5644C26.0561 47.5644 29.7264 41.2056 29.7264 33.3616C29.7264 25.5177 26.0561 19.1589 21.5287 19.1589C17.0012 19.1589 13.3309 25.5177 13.3309 33.3616C13.3309 41.2056 17.0012 47.5644 21.5287 47.5644Z" fill="white"/>
<path fill-rule="evenodd" clip-rule="evenodd" d="M21.4339 26.915C25.4595 26.915 29.1635 25.5889 32.104 23.3644L32.482 23.8302C29.4374 26.1335 25.6014 27.5068 21.4339 27.5068C17.4241 27.5068 13.7209 26.2353 10.7345 24.0875L11.1006 23.6129C13.9849 25.6873 17.5604 26.915 21.4339 26.915ZM21.6618 39.5014C17.6362 39.5014 13.9322 40.8274 10.9917 43.052L10.6136 42.5862C13.6582 40.2829 17.4943 38.9096 21.6618 38.9096C25.6716 38.9096 29.3748 40.181 32.3612 42.3289L31.9951 42.8035C29.1108 40.729 25.5352 39.5014 21.6618 39.5014Z" fill="white"/>
<path d="M4.44364 40.3151C4.44364 40.4916 4.37099 40.661 4.24168 40.7858C4.11237 40.9107 3.93698 40.9808 3.75411 40.9808C3.57123 40.9808 3.39585 40.9107 3.26654 40.7858C3.13723 40.661 3.06458 40.4916 3.06458 40.3151C3.06458 40.1385 3.13723 39.9692 3.26654 39.8443C3.39585 39.7195 3.57123 39.6493 3.75411 39.6493C3.93698 39.6493 4.11237 39.7195 4.24168 39.8443C4.37099 39.9692 4.44364 40.1385 4.44364 40.3151ZM3.21781 34.6931C3.21781 34.8697 3.14516 35.0391 3.01585 35.1639C2.88654 35.2888 2.71115 35.3589 2.52828 35.3589C2.3454 35.3589 2.17002 35.2888 2.04071 35.1639C1.91139 35.0391 1.83875 34.8697 1.83875 34.6931C1.83875 34.5166 1.91139 34.3472 2.04071 34.2224C2.17002 34.0975 2.3454 34.0274 2.52828 34.0274C2.71115 34.0274 2.88654 34.0975 3.01585 34.2224C3.14516 34.3472 3.21781 34.5166 3.21781 34.6931ZM3.6775 29.1452C3.6775 29.3218 3.60485 29.4911 3.47554 29.616C3.34622 29.7408 3.17084 29.811 2.98796 29.811C2.80509 29.811 2.62971 29.7408 2.50039 29.616C2.37108 29.4911 2.29843 29.3218 2.29843 29.1452C2.29843 28.9686 2.37108 28.7993 2.50039 28.6744C2.62971 28.5496 2.80509 28.4795 2.98796 28.4795C3.17084 28.4795 3.34622 28.5496 3.47554 28.6744C3.60485 28.7993 3.6775 28.9686 3.6775 29.1452ZM5.66947 24.263C5.66947 24.4396 5.59682 24.6089 5.46751 24.7338C5.3382 24.8586 5.16282 24.9288 4.97994 24.9288C4.79707 24.9288 4.62168 24.8586 4.49237 24.7338C4.36306 24.6089 4.29041 24.4396 4.29041 24.263C4.29041 24.0864 4.36306 23.9171 4.49237 23.7923C4.62168 23.6674 4.79707 23.5973 4.97994 23.5973C5.16282 23.5973 5.3382 23.6674 5.46751 23.7923C5.59682 23.9171 5.66947 24.0864 5.66947 24.263ZM8.96389 20.0466C8.96389 20.2231 8.89125 20.3925 8.76194 20.5173C8.63262 20.6422 8.45724 20.7123 8.27436 20.7123C8.09149 20.7123 7.9161 20.6422 7.78679 20.5173C7.65748 20.3925 7.58483 20.2231 7.58483 20.0466C7.58483 19.87 7.65748 19.7007 7.78679 19.5758C7.9161 19.451 8.09149 19.3808 8.27436 19.3808C8.45724 19.3808 8.63262 19.451 8.76194 19.5758C8.89125 19.7007 8.96389 19.87 8.96389 20.0466ZM13.5608 16.7918C13.5608 16.9683 13.4881 17.1377 13.3588 17.2625C13.2295 17.3874 13.0541 17.4575 12.8712 17.4575C12.6884 17.4575 12.513 17.3874 12.3837 17.2625C12.2543 17.1377 12.1817 16.9683 12.1817 16.7918C12.1817 16.6152 12.2543 16.4459 12.3837 16.321C12.513 16.1962 12.6884 16.126 12.8712 16.126C13.0541 16.126 13.2295 16.1962 13.3588 16.321C13.4881 16.4459 13.5608 16.6152 13.5608 16.7918ZM19.8431 14.8685C19.8431 15.0451 19.7705 15.2144 19.6412 15.3393C19.5119 15.4641 19.3365 15.5342 19.1536 15.5342C18.9707 15.5342 18.7954 15.4641 18.666 15.3393C18.5367 15.2144 18.4641 15.0451 18.4641 14.8685C18.4641 14.6919 18.5367 14.5226 18.666 14.3977C18.7954 14.2729 18.9707 14.2027 19.1536 14.2027C19.3365 14.2027 19.5119 14.2729 19.6412 14.3977C19.7705 14.5226 19.8431 14.6919 19.8431 14.8685ZM52.6342 44.9079L53.5031 45.0392V45.2968H50.7954V45.0392L51.6643 44.9079V39.1616L50.7954 39.0352V38.7775H53.5031V39.0352L52.6342 39.1616V44.9079ZM55.4581 45.2968V45.0392L56.5341 44.9079V39.1956H56.2765C55.8353 39.1956 55.4648 39.2053 55.1651 39.2248C54.8654 39.2442 54.6532 39.2669 54.5286 39.2928L54.3922 40.3089H54.0537V38.7775H60.0147V40.3089H59.6713L59.5348 39.2928C59.4742 39.2799 59.3833 39.2686 59.2621 39.2588C59.1242 39.2479 58.9861 39.2398 58.8478 39.2345C58.6895 39.2248 58.5161 39.2183 58.3274 39.2151C58.1373 39.2085 57.947 39.2052 57.7567 39.2053H57.5091V44.9079L58.5851 45.0392V45.2968H55.4581ZM59.6258 43.3231V42.5792H62.3132V43.3231H59.6258ZM63.4196 44.8787C63.4903 44.8787 63.5577 44.8366 63.6217 44.7523C63.6856 44.6681 63.7496 44.5271 63.8137 44.3294C63.881 44.1317 63.9483 43.8724 64.0157 43.5515C64.0864 43.2274 64.1605 42.8288 64.2379 42.3556L64.4502 41.0673L63.7884 40.9458V40.727H67.6075V40.9458L67.0315 41.0673V44.9565L67.6075 45.0781V45.2968H65.5615V45.0781L66.193 44.9565V41.1305H64.9048L64.6876 42.4869C64.6168 42.9276 64.5461 43.3279 64.4754 43.6877C64.408 44.0442 64.3255 44.3488 64.2278 44.6016C64.1336 44.8544 64.014 45.0505 63.8692 45.1899C63.7278 45.326 63.5493 45.394 63.3337 45.394C63.2226 45.394 63.1198 45.3762 63.0255 45.3405C62.9347 45.3081 62.8656 45.2725 62.8184 45.2337L62.7881 44.4412H63.0155L63.1721 44.6988C63.1922 44.7345 63.2243 44.7734 63.268 44.8156C63.3152 44.8577 63.3657 44.8787 63.4196 44.8787ZM70.1989 40.6249C70.4145 40.6249 70.6149 40.6444 70.8001 40.6832C70.9854 40.7221 71.1453 40.7886 71.28 40.8826C71.4147 40.9766 71.5192 41.1046 71.5932 41.2667C71.6707 41.4255 71.7094 41.6264 71.7094 41.8695V44.9565L72.3005 45.0781V45.2968H70.9971L70.9012 44.8398C70.8506 44.8884 70.7816 44.9452 70.694 45.01C70.6098 45.0748 70.5072 45.1364 70.3859 45.1947C70.2647 45.2499 70.1232 45.2968 69.9615 45.3357C69.8032 45.3746 69.6265 45.394 69.4311 45.394C69.2021 45.394 69.0084 45.36 68.8501 45.2919C68.6952 45.2239 68.5706 45.1299 68.4763 45.01C68.382 44.8869 68.3147 44.7426 68.2743 44.5773C68.2338 44.4088 68.2136 44.2273 68.2136 44.0329C68.2136 43.8319 68.2389 43.6585 68.2894 43.5127C68.34 43.3635 68.4107 43.2388 68.5016 43.1383C68.5912 43.0389 68.6991 42.9565 68.8199 42.8952C68.9462 42.8298 69.0802 42.7792 69.219 42.7445C69.3682 42.7082 69.5202 42.6838 69.6736 42.6716C69.8352 42.6587 69.9969 42.6505 70.1586 42.6473L70.8708 42.6279V41.9132C70.8708 41.7771 70.859 41.654 70.8354 41.5438C70.8119 41.4303 70.7715 41.3331 70.7142 41.2521C70.6604 41.171 70.5863 41.1078 70.492 41.0625C70.3977 41.0171 70.2798 40.9944 70.1383 40.9944C69.9767 40.9944 69.8133 41.0154 69.6483 41.0576C69.4833 41.0997 69.3385 41.1548 69.2139 41.2229L69.0421 41.7917H68.7592V40.7951C68.9834 40.7488 69.2092 40.7099 69.4362 40.6784C69.6719 40.6428 69.9262 40.6249 70.1989 40.6249ZM70.8708 42.9682L70.209 42.9876C70.0104 42.9941 69.8386 43.0135 69.6938 43.0459C69.549 43.0751 69.4294 43.127 69.3351 43.2015C69.2408 43.276 69.1701 43.3781 69.123 43.5078C69.0758 43.6374 69.0522 43.8027 69.0522 44.0036C69.0522 44.5741 69.293 44.8593 69.7746 44.8593C70.0036 44.8593 70.2006 44.835 70.3656 44.7863C70.5385 44.7328 70.7073 44.6678 70.8708 44.5919V42.9682ZM72.9319 42.4869C72.9319 41.9164 72.9656 41.4044 73.033 40.9506C73.1037 40.4969 73.2249 40.1079 73.3967 39.7839C73.5718 39.4565 73.8042 39.1956 74.0938 39.0012C74.3868 38.8067 74.7556 38.6835 75.2002 38.6317C75.4089 38.609 75.6076 38.588 75.7962 38.5685C75.9882 38.5458 76.1583 38.5183 76.3065 38.4859C76.458 38.4535 76.5843 38.4129 76.685 38.3643C76.7861 38.3157 76.855 38.2509 76.8926 38.1699H77.1454C77.1347 38.4259 77.088 38.6269 77.0037 38.7727C76.9194 38.9153 76.7945 39.0271 76.6298 39.1081C76.4681 39.1891 76.266 39.2475 76.0236 39.2831C75.7395 39.3243 75.4549 39.3616 75.1698 39.395C74.8061 39.4371 74.5198 39.5035 74.3111 39.5943C74.1022 39.685 73.9422 39.8146 73.8312 39.9832C73.72 40.1517 73.6442 40.3673 73.6038 40.6297C73.5667 40.8923 73.5381 41.2164 73.518 41.6021H73.5533C73.6044 41.4649 73.6759 41.3355 73.7655 41.218C73.8603 41.0944 73.9765 40.9875 74.109 40.902C74.2471 40.8113 74.4037 40.74 74.5788 40.6881C74.7539 40.633 74.9493 40.6055 75.1648 40.6055C75.8787 40.6055 76.4159 40.808 76.7761 41.2132C77.137 41.6151 77.317 42.2065 77.317 42.9876C77.317 43.7622 77.137 44.3569 76.7761 44.7718C76.4159 45.1866 75.8552 45.394 75.0941 45.394C74.3801 45.394 73.8413 45.1575 73.4775 44.6843C73.1138 44.2079 72.9319 43.4754 72.9319 42.4869ZM76.4075 42.9876C76.4075 42.6732 76.3856 42.3929 76.3418 42.1466C76.2981 41.897 76.224 41.688 76.1195 41.5194C76.0185 41.3476 75.8838 41.218 75.7154 41.1305C75.547 41.0398 75.3399 40.9944 75.0941 40.9944C74.8448 40.9944 74.6394 41.0398 74.4778 41.1305C74.3161 41.218 74.1881 41.3476 74.0938 41.5194C73.9995 41.688 73.9338 41.897 73.8968 42.1466C73.8597 42.3929 73.8413 42.6732 73.8413 42.9876C73.8413 43.3053 73.8648 43.5888 73.912 43.8384C73.9625 44.088 74.0382 44.3002 74.1393 44.4752C74.2403 44.647 74.37 44.7799 74.5283 44.8738C74.6866 44.9646 74.8752 45.01 75.0941 45.01C75.3399 45.01 75.547 44.9646 75.7154 44.8738C75.8838 44.7799 76.0185 44.647 76.1195 44.4752C76.224 44.3002 76.2981 44.088 76.3418 43.8384C76.3856 43.5888 76.4075 43.3053 76.4075 42.9876ZM82.49 42.9876C82.49 43.7622 82.3092 44.3569 81.9491 44.7718C81.5891 45.1866 81.0282 45.394 80.2667 45.394C79.5526 45.394 79.014 45.1882 78.6501 44.7766C78.287 44.3651 78.1046 43.7687 78.1046 42.9876C78.1046 42.2162 78.287 41.6264 78.6501 41.218C79.014 40.8096 79.5664 40.6055 80.3073 40.6055C81.0282 40.6055 81.5722 40.8064 81.9392 41.2083C82.3062 41.6069 82.49 42.2 82.49 42.9876ZM81.5806 42.9876C81.5806 42.6732 81.5584 42.3929 81.5147 42.1466C81.4711 41.897 81.3968 41.688 81.2926 41.5194C81.1914 41.3476 81.0566 41.218 80.888 41.1305C80.7202 41.0398 80.5126 40.9944 80.2667 40.9944C80.0177 40.9944 79.8124 41.0398 79.6507 41.1305C79.4891 41.218 79.3611 41.3476 79.2669 41.5194C79.1726 41.688 79.1068 41.897 79.07 42.1466C79.0324 42.3929 79.014 42.6732 79.014 42.9876C79.014 43.3053 79.0324 43.5888 79.07 43.8384C79.1068 44.088 79.1726 44.3002 79.2669 44.4752C79.3611 44.647 79.4891 44.7799 79.6507 44.8738C79.8124 44.9646 80.0177 45.01 80.2667 45.01C80.5126 45.01 80.7202 44.9646 80.888 44.8738C81.0566 44.7799 81.1914 44.647 81.2926 44.4752C81.3968 44.3002 81.4711 44.088 81.5147 43.8384C81.5584 43.5888 81.5806 43.3053 81.5806 42.9876ZM83.6515 41.0673L83.1114 40.9458V40.727H84.4445L84.4552 40.9944C84.5257 40.9361 84.6084 40.8842 84.7027 40.8388C84.8028 40.7891 84.9074 40.7484 85.0153 40.7173C85.1308 40.6806 85.2491 40.653 85.3692 40.6346C85.4941 40.6152 85.6197 40.6055 85.7485 40.6055C86.0442 40.6055 86.3108 40.6557 86.546 40.7562C86.782 40.8566 86.9827 41.0074 87.1474 41.2083C87.3122 41.406 87.437 41.6523 87.5213 41.9473C87.6087 42.2389 87.6523 42.576 87.6523 42.9584C87.6523 43.3312 87.6087 43.6682 87.5213 43.9696C87.434 44.2678 87.3022 44.5238 87.1275 44.7377C86.9521 44.9484 86.7314 45.1105 86.4656 45.2239C86.2028 45.3374 85.8948 45.394 85.5408 45.394C85.3692 45.394 85.1876 45.3843 84.9953 45.3649C84.8069 45.3487 84.6268 45.3227 84.4552 45.2871C84.4583 45.326 84.4613 45.3698 84.4652 45.4184C84.4721 45.4702 84.4751 45.5221 84.4751 45.5739C84.4782 45.629 84.4805 45.6793 84.4805 45.7246C84.4836 45.77 84.4851 45.8073 84.4851 45.8365V47.0713L85.3133 47.1879V47.4164H83.0509V47.1879L83.6515 47.0713V41.0673ZM86.7429 42.9584C86.7429 42.6279 86.7146 42.3459 86.6571 42.1125C86.6004 41.8792 86.5161 41.6895 86.405 41.5438C86.297 41.3946 86.1637 41.2861 86.0059 41.218C85.8473 41.15 85.6688 41.1159 85.4703 41.1159C85.3087 41.1159 85.1348 41.1305 84.9501 41.1597C84.7678 41.1856 84.613 41.2245 84.4851 41.2763V44.9273C84.6268 44.9533 84.7831 44.9744 84.9547 44.9906C85.1263 45.0035 85.2987 45.01 85.4703 45.01C85.9147 45.01 86.238 44.8334 86.4403 44.4801C86.6425 44.1235 86.7429 43.6164 86.7429 42.9584ZM90.4058 40.6249C90.6211 40.6249 90.8219 40.6444 91.0073 40.6832C91.1919 40.7221 91.352 40.7886 91.4869 40.8826C91.6217 40.9766 91.7259 41.1046 91.8002 41.2667C91.8776 41.4255 91.9159 41.6264 91.9159 41.8695V44.9565L92.5074 45.0781V45.2968H91.2042L91.1076 44.8398C91.0571 44.8884 90.9881 44.9452 90.9008 45.01C90.8165 45.0748 90.7138 45.1364 90.5928 45.1947C90.4717 45.2499 90.33 45.2968 90.1684 45.3357C90.0098 45.3746 89.8335 45.394 89.6382 45.394C89.4091 45.394 89.2153 45.36 89.0567 45.2919C88.9019 45.2239 88.7778 45.1299 88.6828 45.01C88.5886 44.8869 88.5211 44.7426 88.4813 44.5773C88.4407 44.4088 88.4208 44.2273 88.4208 44.0329C88.4208 43.8319 88.446 43.6585 88.4958 43.5127C88.5464 43.3635 88.6177 43.2388 88.7081 43.1383C88.7979 43.039 88.9059 42.9566 89.0268 42.8952C89.1531 42.8297 89.2871 42.7791 89.4259 42.7445C89.5707 42.7089 89.7225 42.6846 89.8803 42.6716C90.0419 42.6587 90.2036 42.6505 90.3652 42.6473L91.0778 42.6279V41.9132C91.0778 41.7771 91.0655 41.654 91.0425 41.5438C91.0188 41.4303 90.9782 41.3331 90.9207 41.2521C90.8671 41.171 90.7927 41.1078 90.6985 41.0625C90.6043 41.0171 90.4863 40.9944 90.3453 40.9944C90.1837 40.9944 90.0205 41.0154 89.855 41.0576C89.6903 41.0997 89.5455 41.1548 89.4206 41.2229L89.249 41.7917H88.9663V40.7951C89.1846 40.7497 89.4106 40.7108 89.6428 40.6784C89.8787 40.6428 90.1331 40.6249 90.4058 40.6249ZM91.0778 42.9682L90.4158 42.9876C90.2174 42.9941 90.0458 43.0135 89.901 43.0459C89.7554 43.0751 89.6359 43.127 89.5416 43.2015C89.4474 43.276 89.3769 43.3781 89.3294 43.5078C89.2827 43.6374 89.2589 43.8027 89.2589 44.0036C89.2589 44.5741 89.4995 44.8593 89.9814 44.8593C90.2105 44.8593 90.4074 44.835 90.5721 44.7863C90.7407 44.7345 90.9092 44.6697 91.0778 44.5919V42.9682ZM96.7503 40.727V42.0299H96.4729L96.2554 41.2229C96.1374 41.2034 95.988 41.184 95.8056 41.1646C95.6215 41.1415 95.4359 41.1301 95.2502 41.1305H95.0586V44.9565L95.7351 45.0781V45.2968H93.4873V45.0781L94.2197 44.9565V41.1305H94.0328C93.8412 41.1305 93.6543 41.1419 93.472 41.1646C93.2934 41.184 93.1456 41.2034 93.0276 41.2229L92.81 42.0299H92.5327V40.727H96.7503ZM101.545 42.9876C101.545 43.7622 101.365 44.3569 101.004 44.7718C100.644 45.1866 100.083 45.394 99.3222 45.394C98.6082 45.394 98.0688 45.1882 97.7057 44.7766C97.3418 44.3651 97.1602 43.7687 97.1602 42.9876C97.1602 42.2162 97.3418 41.6264 97.7057 41.218C98.0688 40.8096 98.6212 40.6055 99.3621 40.6055C100.083 40.6055 100.627 40.8064 100.994 41.2083C101.361 41.6069 101.545 42.2 101.545 42.9876ZM100.635 42.9876C100.635 42.6732 100.613 42.3929 100.57 42.1466C100.526 41.897 100.452 41.688 100.347 41.5194C100.246 41.3476 100.111 41.218 99.9436 41.1305C99.775 41.0398 99.5682 40.9944 99.3222 40.9944C99.0725 40.9944 98.8671 41.0398 98.7055 41.1305C98.5438 41.218 98.4159 41.3476 98.3217 41.5194C98.2274 41.688 98.1615 41.897 98.1248 42.1466C98.088 42.3929 98.0688 42.6732 98.0688 42.9876C98.0688 43.3053 98.088 43.5888 98.1248 43.8384C98.1615 44.088 98.2274 44.3002 98.3217 44.4752C98.4159 44.647 98.5438 44.7799 98.7055 44.8738C98.8671 44.9646 99.0725 45.01 99.3222 45.01C99.5682 45.01 99.775 44.9646 99.9436 44.8738C100.111 44.7799 100.246 44.647 100.347 44.4752C100.452 44.3002 100.526 44.088 100.57 43.8384C100.613 43.5888 100.635 43.3053 100.635 42.9876ZM102.706 41.0673L102.166 40.9458V40.727H103.5L103.51 40.9944C103.58 40.9361 103.663 40.8842 103.757 40.8388C103.858 40.7891 103.963 40.7484 104.071 40.7173C104.182 40.6816 104.3 40.6541 104.424 40.6346C104.549 40.6152 104.675 40.6055 104.803 40.6055C105.1 40.6055 105.366 40.6557 105.602 40.7562C105.837 40.8566 106.037 41.0074 106.202 41.2083C106.368 41.406 106.492 41.6523 106.576 41.9473C106.663 42.2389 106.708 42.576 106.708 42.9584C106.708 43.3312 106.663 43.6682 106.576 43.9696C106.489 44.2678 106.357 44.5238 106.182 44.7377C106.007 44.9484 105.786 45.1105 105.52 45.2239C105.258 45.3374 104.95 45.394 104.596 45.394C104.424 45.394 104.242 45.3843 104.05 45.3649C103.862 45.3487 103.682 45.3227 103.51 45.2871C103.513 45.326 103.517 45.3698 103.52 45.4184C103.527 45.4702 103.53 45.5221 103.53 45.5739C103.534 45.629 103.535 45.6793 103.535 45.7246C103.538 45.77 103.54 45.8073 103.54 45.8365V47.0713L104.369 47.1879V47.4164H102.106V47.1879L102.706 47.0713V41.0673ZM105.798 42.9584C105.798 42.6279 105.769 42.3459 105.713 42.1125C105.655 41.8792 105.571 41.6895 105.46 41.5438C105.352 41.3946 105.219 41.2861 105.061 41.218C104.902 41.15 104.724 41.1159 104.525 41.1159C104.363 41.1159 104.19 41.1305 104.005 41.1597C103.823 41.1856 103.668 41.2245 103.54 41.2763V44.9273C103.682 44.9533 103.838 44.9744 104.01 44.9906C104.182 45.0035 104.354 45.01 104.525 45.01C104.969 45.01 105.293 44.8334 105.495 44.4801C105.697 44.1235 105.798 43.6164 105.798 42.9584ZM107.93 41.0673L107.299 40.9458V40.727H109.344V40.9458L108.769 41.0673V43.9405L110.991 41.6264V41.0673L110.36 40.9458V40.727H112.406V40.9458L111.83 41.0673V44.9565L112.406 45.0781V45.2968H110.36V45.0781L110.991 44.9565V42.1758L108.769 44.4898V44.9565L109.344 45.0781V45.2968H107.299V45.0781L107.93 44.9565V41.0673ZM113.831 45.2968H112.678V45.0781L113.088 44.9662L114.215 43.1869C113.877 43.1124 113.615 42.9682 113.426 42.7542C113.241 42.5404 113.149 42.2779 113.149 41.9667C113.149 41.7333 113.197 41.5389 113.295 41.3833C113.392 41.2245 113.529 41.0965 113.704 40.9992C113.883 40.902 114.095 40.8324 114.341 40.7902C114.59 40.7481 114.863 40.727 115.159 40.727H117.22V40.9458L116.589 41.0673V44.9565L117.22 45.0781V45.2968H115.129V45.0781L115.75 44.9517V43.3328H115.013L113.831 45.2968ZM115.75 41.1159H115.235C114.824 41.1159 114.524 41.1905 114.336 41.3396C114.15 41.4854 114.058 41.7026 114.058 41.991C114.058 42.1239 114.074 42.2486 114.108 42.3654C114.145 42.4777 114.207 42.5807 114.29 42.6667C114.378 42.751 114.49 42.8191 114.628 42.871C114.77 42.9196 114.947 42.9438 115.159 42.9438H115.75V41.1159ZM51.4988 26.538H50.7954V23.547H57.7244V24.164L53.5121 34.0192H51.5797L56.1478 25.2885H51.8708L51.4988 26.538ZM69.3671 26.1319C69.3671 25.8352 69.3348 25.58 69.2701 25.3666C69.2108 25.1479 69.1112 24.9683 68.971 24.8278C68.8308 24.682 68.6476 24.5753 68.4212 24.5076C68.2002 24.4399 67.9307 24.4061 67.6127 24.4061H66.4888V28.0529H67.6773C68.0061 28.0529 68.2784 28.0087 68.494 27.9202C68.715 27.8317 68.8901 27.7067 69.0195 27.5453C69.1489 27.3787 69.2378 27.1783 69.2863 26.9441C69.3402 26.7045 69.3671 26.4338 69.3671 26.1319ZM70.1838 30.9657C70.1838 30.2734 70.0032 29.7579 69.642 29.4196C69.2863 29.0811 68.7015 28.912 67.8876 28.912H66.4888V33.1601C66.7475 33.1706 66.9955 33.1783 67.2327 33.1836C67.4321 33.194 67.6343 33.2018 67.8391 33.207H68.3242C68.6637 33.207 68.9521 33.155 69.1893 33.0508C69.4264 32.9467 69.6178 32.7983 69.7633 32.6057C69.9089 32.4131 70.014 32.1788 70.0787 31.9029C70.1488 31.6269 70.1838 31.3146 70.1838 30.9657ZM62.5432 34.0192V33.4491L63.942 33.2383V24.3202L62.5432 24.1171V23.547H67.8067C68.6099 23.547 69.2809 23.6017 69.8199 23.711C70.359 23.8204 70.7902 23.9766 71.1136 24.1796C71.4424 24.3826 71.6741 24.6299 71.8089 24.9214C71.949 25.213 72.0191 25.5436 72.0191 25.9133C72.0191 26.262 71.9572 26.577 71.8331 26.8581C71.7146 27.1393 71.5529 27.3866 71.3481 27.6C71.1432 27.8083 70.9061 27.9826 70.6366 28.1232C70.3685 28.2581 70.083 28.3579 69.7876 28.42C70.3212 28.4721 70.7794 28.5684 71.1621 28.7089C71.5502 28.8495 71.8682 29.0291 72.1161 29.2477C72.3695 29.4664 72.5554 29.7215 72.674 30.0131C72.7926 30.2994 72.8519 30.617 72.8519 30.9657C72.8519 31.4187 72.7683 31.8352 72.6013 32.2152C72.4342 32.5953 72.1673 32.9233 71.8008 33.1992C71.4397 33.4699 70.9734 33.6833 70.402 33.8396C69.8361 33.9906 69.1515 34.066 68.3484 34.066C67.7016 34.066 67.0602 34.0582 66.4241 34.0426C65.8367 34.0276 65.2492 34.0198 64.6615 34.0192H62.5432ZM73.5957 33.4491L74.9864 33.2383V24.3202L73.5957 24.1171V23.547H82.8287V26.21H82.0932L81.8342 24.5154C81.6618 24.4945 81.4519 24.4763 81.2037 24.4607C80.9616 24.4451 80.7133 24.4347 80.4598 24.4295C80.2069 24.4191 79.9671 24.4138 79.7403 24.4138C79.5143 24.4087 79.3389 24.4061 79.2148 24.4061H77.5331V28.2482H80.3709L80.6214 27.0924H81.3416V30.3098H80.6214L80.3709 29.1228H77.5331V33.1601H79.5787C79.9127 33.1601 80.2284 33.1576 80.5249 33.1524C80.8214 33.1419 81.088 33.1315 81.3255 33.1211C81.5622 33.1107 81.7645 33.0977 81.9315 33.082C82.1039 33.0664 82.2311 33.0508 82.3115 33.0352L82.7728 31.0985H83.5082L83.3542 34.0192H73.5957V33.4491ZM80.2016 22.5865C80.0667 22.5865 79.9403 22.5605 79.8216 22.5085C79.7055 22.458 79.5988 22.3894 79.5059 22.3054C79.419 22.2157 79.3481 22.1128 79.296 22.0009C79.2473 21.887 79.2226 21.7649 79.2232 21.6416C79.2232 21.5115 79.2469 21.3917 79.296 21.2824C79.3496 21.1679 79.4201 21.069 79.5059 20.9857C79.5977 20.9023 79.7048 20.8361 79.8216 20.7904C79.9403 20.7384 80.0667 20.7123 80.2016 20.7123C80.3364 20.7123 80.4628 20.7384 80.5816 20.7904C80.6965 20.835 80.801 20.9014 80.8888 20.9857C80.9746 21.069 81.042 21.1679 81.0911 21.2824C81.1393 21.3917 81.1638 21.5115 81.1638 21.6416C81.1638 21.7666 81.1393 21.8863 81.0911 22.0009C81.0434 22.1134 80.9748 22.2166 80.8888 22.3054C80.8022 22.3887 80.7003 22.4564 80.5816 22.5085C80.4628 22.5605 80.3364 22.5865 80.2016 22.5865ZM77.4848 22.5865C77.3553 22.5865 77.2312 22.5605 77.1125 22.5085C76.9966 22.458 76.8902 22.3894 76.7976 22.3054C76.7105 22.2159 76.6394 22.1129 76.5873 22.0009C76.5338 21.8882 76.5062 21.7656 76.5065 21.6416C76.5065 21.5115 76.5333 21.3917 76.5873 21.2824C76.6413 21.1679 76.711 21.069 76.7976 20.9857C76.8891 20.9023 76.9959 20.8362 77.1125 20.7904C77.2293 20.7388 77.3563 20.7121 77.4848 20.7123C77.6197 20.7123 77.7438 20.7384 77.8564 20.7904C77.9752 20.8373 78.0778 20.9024 78.1636 20.9857C78.2502 21.069 78.3176 21.1679 78.3659 21.2824C78.4203 21.3917 78.4471 21.5115 78.4471 21.6416C78.4471 21.7666 78.4226 21.8863 78.3743 22.0009C78.3266 22.1134 78.2581 22.2166 78.1721 22.3054C78.0855 22.3887 77.9836 22.4564 77.8648 22.5085C77.7461 22.5605 77.6197 22.5865 77.4848 22.5865ZM91.3995 26.6473C91.3995 26.2308 91.362 25.8794 91.2861 25.593C91.2111 25.3067 91.087 25.0777 90.9146 24.9058C90.7476 24.7288 90.5238 24.6013 90.2434 24.5232C89.9684 24.4451 89.629 24.4061 89.2244 24.4061H88.5855V29.0525H89.2566C89.6665 29.0525 90.0059 29.003 90.2756 28.9041C90.5507 28.8 90.7713 28.6491 90.9383 28.4512C91.1053 28.2482 91.2241 27.9983 91.2946 27.7016C91.3643 27.3996 91.3995 27.0482 91.3995 26.6473ZM88.5855 29.9116V33.2383L90.389 33.4491V34.0192H84.7456V33.4491L86.0312 33.2383V24.3202L84.6398 24.1171V23.547H89.4183C90.3239 23.547 91.0709 23.6277 91.6585 23.7891C92.2507 23.9453 92.7196 24.164 93.0651 24.4451C93.4153 24.7211 93.6581 25.0464 93.793 25.4213C93.9324 25.7961 94.0029 26.1995 94.0029 26.6317C94.0029 27.0586 93.9439 27.4699 93.8252 27.8656C93.7118 28.2612 93.5041 28.61 93.2023 28.912C92.9058 29.2139 92.502 29.456 91.9895 29.6382C91.4777 29.8204 90.828 29.9116 90.0412 29.9116H88.5855ZM101.28 34.1753C100.369 34.1753 99.5544 34.0556 98.838 33.8161C98.1263 33.5766 97.5226 33.2304 97.0269 32.7775C96.5312 32.3245 96.1512 31.7727 95.8868 31.122C95.6279 30.466 95.4984 29.7267 95.4984 28.9041C95.4984 27.967 95.6279 27.1549 95.8868 26.4677C96.1512 25.7805 96.5281 25.213 97.0184 24.7653C97.5149 24.3124 98.1179 23.9766 98.8296 23.7579C99.5467 23.5393 100.36 23.4299 101.271 23.4299C102.042 23.4299 102.754 23.4846 103.406 23.5939C104.064 23.698 104.654 23.8178 105.176 23.9531L105.225 26.4677H104.498L104.271 24.9527C103.931 24.7288 103.549 24.5571 103.123 24.4373C102.697 24.3124 102.253 24.2499 101.789 24.2499C101.223 24.2499 100.717 24.3305 100.269 24.492C99.8218 24.6481 99.4418 24.9084 99.1292 25.2729C98.8219 25.6373 98.5875 26.1137 98.4251 26.702C98.2634 27.2903 98.183 28.0165 98.183 28.8808C98.183 29.6408 98.2634 30.302 98.4251 30.8643C98.5875 31.4265 98.8189 31.8925 99.1207 32.2621C99.4226 32.6318 99.7919 32.9103 100.229 33.0977C100.671 33.2799 101.169 33.371 101.724 33.371C102.333 33.371 102.864 33.2929 103.317 33.1367C103.775 32.9805 104.134 32.7957 104.393 32.5823L104.651 30.8643H105.387L105.338 33.5194C105.107 33.6079 104.832 33.6912 104.514 33.7692C104.201 33.8473 103.864 33.9176 103.503 33.9801C103.148 34.0374 102.778 34.0842 102.395 34.1207C102.013 34.1571 101.641 34.1753 101.28 34.1753ZM109.163 34.0192V33.4491L110.885 33.2383V24.3749H110.473C109.766 24.3749 109.206 24.3905 108.791 24.4217C108.376 24.4529 108.069 24.4894 107.869 24.531L107.651 26.4755H106.915V23.547H117.45V26.4755H116.706L116.488 24.531C116.289 24.4894 115.954 24.4555 115.486 24.4295C115.022 24.4035 114.472 24.3905 113.836 24.3905H113.44V33.2383L115.162 33.4491V34.0192H109.163ZM3.59782 2.27377C3.59782 2.0415 3.57085 1.84103 3.51676 1.67267C3.46573 1.50423 3.38023 1.36627 3.2601 1.25887C3.14303 1.1485 2.98842 1.0672 2.79635 1.0149C2.6042 0.962679 2.367 0.936493 2.08483 0.936493H1.64353V3.70255H2.11188C2.39405 3.70255 2.62972 3.67059 2.8188 3.60668C3.01095 3.53988 3.16402 3.4455 3.2781 3.32351C3.39525 3.20161 3.47776 3.05204 3.5258 2.87487C3.57384 2.69778 3.59782 2.49739 3.59782 2.27377ZM1.64353 4.09453V6.03727L2.60275 6.15489V6.38576H0.0584568V6.15489L0.774419 6.03727V0.888633L0 0.775381V0.544438H2.27851C2.70173 0.544438 3.05447 0.589414 3.33664 0.679438C3.62187 0.766578 3.84995 0.888559 4.02111 1.04538C4.19219 1.19924 4.31378 1.38077 4.3858 1.58982C4.45789 1.79894 4.4939 2.02404 4.4939 2.26497C4.4939 2.50316 4.45789 2.73247 4.38587 2.95321C4.31684 3.17394 4.19817 3.36849 4.03015 3.53685C3.86505 3.70536 3.64287 3.84036 3.36368 3.942C3.0845 4.04364 2.73774 4.09446 2.32349 4.09446H1.64353V4.09453ZM6.96157 2.19972C7.15365 2.19972 7.33231 2.21718 7.49742 2.25202C7.66252 2.28679 7.8051 2.34641 7.92515 2.43059C8.04521 2.51485 8.1383 2.62958 8.20434 2.77471C8.27337 2.91704 8.30792 3.09708 8.30792 3.31486V6.08084L8.83472 6.18973V6.38576H7.67302L7.58744 5.97632C7.54239 6.01989 7.48094 6.07071 7.4028 6.1287C7.32771 6.18685 7.23624 6.24203 7.12813 6.29425C7.02011 6.34367 6.894 6.38576 6.74989 6.4206C6.60876 6.45544 6.45117 6.4729 6.2771 6.4729C6.07292 6.4729 5.90031 6.44235 5.75919 6.38139C5.62113 6.32044 5.51011 6.23619 5.42607 6.12878C5.34202 6.01841 5.28196 5.88918 5.24595 5.74109C5.20994 5.59011 5.19186 5.42744 5.19186 5.25324C5.19186 5.07319 5.21438 4.91785 5.25943 4.78714C5.30448 4.65354 5.36746 4.54177 5.44851 4.45175C5.52824 4.36276 5.62445 4.2889 5.73222 4.23397C5.84475 4.17533 5.96418 4.12998 6.08794 4.0989C6.22093 4.06633 6.35649 4.04448 6.49323 4.03358C6.63705 4.02196 6.7812 4.01468 6.92549 4.01176L7.56039 3.99437V3.35407C7.56039 3.23208 7.5499 3.12179 7.5289 3.02304C7.50791 2.9214 7.47183 2.83426 7.42088 2.76162C7.37284 2.68905 7.30672 2.63239 7.22268 2.59178C7.13863 2.55109 7.03359 2.53075 6.90748 2.53075C6.76345 2.53075 6.61788 2.54969 6.47078 2.58741C6.32368 2.62514 6.19451 2.67455 6.0835 2.73551L5.93034 3.24518H5.67821V2.35218C5.87805 2.31071 6.07931 2.27585 6.28162 2.24766C6.4917 2.2157 6.71832 2.19972 6.96157 2.19972ZM7.56032 4.29929L6.97046 4.31667C6.79333 4.32251 6.64025 4.33997 6.51116 4.36897C6.38206 4.39508 6.27549 4.44161 6.19145 4.50833C6.1074 4.57513 6.04435 4.66664 6.00236 4.78277C5.9603 4.89891 5.93931 5.047 5.93931 5.22705C5.93931 5.7382 6.1539 5.9937 6.58318 5.9937C6.78735 5.9937 6.96295 5.97196 7.11005 5.92839C7.26412 5.8804 7.41456 5.82219 7.56032 5.75418V4.29929ZM11.4195 4.26881C11.5486 4.28915 11.6656 4.32688 11.7707 4.38199C11.8788 4.43429 11.9718 4.49961 12.0498 4.57802C12.1268 4.6548 12.1879 4.74499 12.23 4.8438C12.275 4.94248 12.2975 5.04708 12.2975 5.15744C12.2975 5.58722 12.1429 5.91389 11.8337 6.13743C11.5245 6.36105 11.0547 6.4729 10.4243 6.4729C10.3037 6.47263 10.1833 6.46388 10.0641 6.44671C9.94744 6.43051 9.83171 6.40871 9.71732 6.38139C9.61731 6.35513 9.51947 6.32165 9.42465 6.28124C9.33762 6.24351 9.2715 6.2043 9.22653 6.16362V5.90227C9.34957 5.93704 9.49966 5.96611 9.67679 5.98934C9.85392 6.00968 10.0355 6.01989 10.2217 6.01989C10.4708 6.01989 10.6765 5.99807 10.8386 5.9545C11.0037 5.911 11.1342 5.85145 11.2303 5.77593C11.3264 5.70048 11.3924 5.61186 11.4284 5.51022C11.4675 5.4057 11.487 5.29385 11.487 5.17483C11.487 5.04996 11.4614 4.94255 11.4104 4.85245C11.3613 4.76449 11.2919 4.68851 11.2078 4.63031C11.1237 4.57225 11.0262 4.52868 10.9151 4.49968C10.8051 4.47036 10.6915 4.45568 10.5774 4.45604H10.037V4.09453H10.5819C10.729 4.09453 10.855 4.07426 10.9602 4.03358C11.0652 3.99289 11.1522 3.93919 11.2213 3.87239C11.2895 3.80402 11.3417 3.72231 11.3744 3.63279C11.4074 3.53988 11.4239 3.44121 11.4239 3.33661C11.4239 3.07238 11.3564 2.87206 11.2213 2.73551C11.0893 2.59903 10.8641 2.53075 10.5459 2.53075C10.4228 2.53075 10.2952 2.54969 10.1631 2.58741C10.0311 2.62514 9.9215 2.67455 9.83439 2.73551L9.67227 3.32788H9.42465V2.31734C9.59275 2.2825 9.76988 2.25202 9.95597 2.22584C10.1451 2.19684 10.3522 2.18234 10.5774 2.18234C11.1447 2.18234 11.5575 2.27088 11.8157 2.44805C12.0738 2.62514 12.2029 2.90246 12.2029 3.28002C12.2029 3.51525 12.1309 3.71416 11.9868 3.87676C11.8427 4.03654 11.6536 4.15844 11.4195 4.24262V4.26881ZM13.2971 2.59614L12.8154 2.48725V2.29123H14.0041L14.0131 2.53075C14.0761 2.47853 14.1497 2.43207 14.2337 2.39139C14.3232 2.34692 14.4166 2.31047 14.5129 2.2825C14.6158 2.24967 14.7212 2.2249 14.8282 2.20845C14.9399 2.19099 15.0528 2.18225 15.1659 2.18234C15.4301 2.18234 15.6672 2.22731 15.8774 2.31734C16.0875 2.40736 16.2661 2.54236 16.4132 2.72241C16.5603 2.89958 16.6714 3.12031 16.7464 3.38447C16.8245 3.64589 16.8635 3.94792 16.8635 4.29063C16.8635 4.62454 16.8245 4.9265 16.7464 5.19658C16.6683 5.46376 16.5513 5.69315 16.3952 5.88482C16.2391 6.07359 16.0425 6.2188 15.8053 6.32044C15.5711 6.42208 15.2965 6.47282 14.9813 6.47282C14.8282 6.47282 14.6661 6.46417 14.4949 6.44671C14.333 6.43309 14.1721 6.40981 14.0131 6.37703C14.0165 6.41621 14.0195 6.45541 14.0221 6.49465C14.0281 6.5411 14.0312 6.58756 14.0312 6.63401C14.0342 6.68342 14.0356 6.7284 14.0356 6.76908C14.0386 6.80977 14.0401 6.84306 14.0401 6.86924V7.97565L14.7786 8.08018V8.28493H12.7613V8.08018L13.2971 7.97565V2.59614ZM16.053 4.29056C16.053 3.99437 16.0274 3.74168 15.9764 3.53264C15.9254 3.32351 15.8503 3.15367 15.7512 3.02296C15.6552 2.88944 15.5366 2.79217 15.3955 2.73114C15.2544 2.67019 15.0954 2.63971 14.9182 2.63971C14.7741 2.63971 14.6195 2.65273 14.4544 2.67892C14.2923 2.70215 14.1542 2.73699 14.0401 2.78344V6.05466C14.1662 6.07788 14.3058 6.09675 14.4589 6.11125C14.612 6.12286 14.7651 6.1287 14.9182 6.1287C15.3145 6.1287 15.6027 5.9704 15.7828 5.65387C15.9629 5.33446 16.053 4.87997 16.053 4.29056ZM19.3176 2.19972C19.5097 2.19972 19.6883 2.21718 19.8534 2.25202C20.0185 2.28679 20.1611 2.34641 20.2812 2.43059C20.4013 2.51485 20.4944 2.62958 20.5604 2.77471C20.6294 2.91704 20.664 3.09708 20.664 3.31486V6.08084L21.1908 6.18973V6.38576H20.029L19.9435 5.97632C19.8985 6.01989 19.8369 6.07071 19.7589 6.1287C19.6838 6.18685 19.5922 6.24203 19.4842 6.29425C19.3761 6.34367 19.25 6.38576 19.106 6.4206C18.9648 6.45544 18.8072 6.4729 18.6331 6.4729C18.429 6.4729 18.2564 6.44235 18.1153 6.38139C17.9772 6.32044 17.8661 6.23619 17.7821 6.12878C17.698 6.01841 17.638 5.88918 17.6019 5.74109C17.5659 5.59011 17.5479 5.42744 17.5479 5.25324C17.5479 5.07319 17.5705 4.91785 17.6155 4.78714C17.6605 4.65354 17.7235 4.54177 17.8046 4.45175C17.8843 4.36275 17.9805 4.2889 18.0883 4.23397C18.2008 4.17532 18.3203 4.12997 18.444 4.0989C18.577 4.06633 18.7126 4.04448 18.8493 4.03358C18.9931 4.02196 19.1373 4.01468 19.2816 4.01176L19.9165 3.99437V3.35407C19.9165 3.23208 19.906 3.12179 19.885 3.02304C19.8639 2.9214 19.8279 2.83426 19.7769 2.76162C19.7288 2.68905 19.6628 2.63239 19.5788 2.59178C19.4947 2.55109 19.3896 2.53075 19.2636 2.53075C19.1194 2.53075 18.9739 2.54969 18.8268 2.58741C18.6797 2.62514 18.5506 2.67455 18.4395 2.73551L18.2864 3.24518H18.0343V2.35218C18.2341 2.31071 18.4353 2.27585 18.6376 2.24766C18.8478 2.2157 19.0744 2.19972 19.3176 2.19972ZM19.9165 4.29929L19.3266 4.31667C19.1495 4.32251 18.9964 4.33997 18.8673 4.36897C18.7382 4.39508 18.6316 4.44161 18.5476 4.50833C18.4636 4.57513 18.4005 4.66664 18.3584 4.78277C18.3165 4.89891 18.2954 5.047 18.2954 5.22705C18.2954 5.7382 18.5101 5.9937 18.9393 5.9937C19.1435 5.9937 19.3191 5.97196 19.4662 5.92839C19.6203 5.8804 19.7707 5.82219 19.9165 5.75418V4.29929ZM21.7537 3.86803C21.7537 3.35695 21.7837 2.8981 21.8437 2.49154C21.9068 2.08499 22.0149 1.73658 22.1679 1.44616C22.324 1.15286 22.5312 0.91911 22.7894 0.744904C23.0505 0.570625 23.3792 0.460258 23.7755 0.413803C23.9616 0.39346 24.1387 0.374597 24.3069 0.357214C24.4779 0.336871 24.6296 0.312164 24.7616 0.283167C24.8967 0.254096 25.0093 0.217775 25.0994 0.174205C25.1894 0.13071 25.251 0.0725671 25.284 0H25.5091C25.5001 0.229389 25.4581 0.409438 25.3831 0.540148C25.308 0.667899 25.1969 0.768131 25.0498 0.840699C24.9058 0.913266 24.7256 0.965564 24.5094 0.99752C24.2933 1.02948 24.0396 1.06284 23.7485 1.09768C23.4243 1.13541 23.1691 1.19495 22.983 1.27625C22.7969 1.35762 22.6543 1.47376 22.5552 1.62473C22.4562 1.77579 22.3886 1.96885 22.3526 2.20409C22.3196 2.43932 22.294 2.72966 22.276 3.07526H22.3075C22.3531 2.95238 22.4168 2.83648 22.4966 2.73114C22.5811 2.62048 22.6847 2.52472 22.8028 2.44805C22.926 2.36668 23.0656 2.30284 23.2216 2.25639C23.3778 2.20697 23.5518 2.18234 23.744 2.18234C24.3804 2.18234 24.8592 2.36379 25.1804 2.72678C25.5016 3.08688 25.6622 3.61682 25.6622 4.31667C25.6622 5.01076 25.5016 5.54365 25.1804 5.91529C24.8592 6.28701 24.3593 6.4729 23.6809 6.4729C23.0445 6.4729 22.5642 6.26089 22.24 5.83688C21.9158 5.41006 21.7537 4.75378 21.7537 3.86803ZM24.8517 4.31667C24.8517 4.03506 24.8322 3.78385 24.7931 3.56311C24.7541 3.33949 24.6881 3.15219 24.595 3.00122C24.505 2.84735 24.3849 2.73122 24.2348 2.65281C24.0847 2.57144 23.9 2.53075 23.6809 2.53075C23.4588 2.53075 23.2756 2.57144 23.1316 2.65281C22.9875 2.73122 22.8734 2.84735 22.7894 3.00122C22.7053 3.15219 22.6468 3.33949 22.6138 3.56311C22.5807 3.78385 22.5642 4.03506 22.5642 4.31667C22.5642 4.60132 22.5852 4.85541 22.6272 5.07896C22.6723 5.30258 22.7398 5.49276 22.8299 5.64958C22.9199 5.80352 23.0355 5.92254 23.1766 6.0068C23.3177 6.08817 23.4858 6.12878 23.6809 6.12878C23.9 6.12878 24.0847 6.08809 24.2348 6.00672C24.3849 5.92254 24.505 5.80352 24.595 5.64958C24.6881 5.49276 24.7541 5.30265 24.7931 5.07896C24.8322 4.85541 24.8517 4.60132 24.8517 4.31667ZM30.2732 4.31667C30.2732 5.01076 30.1126 5.54365 29.7914 5.91529C29.4702 6.28701 28.9704 6.4729 28.292 6.4729C27.6555 6.4729 27.1752 6.28848 26.851 5.91966C26.5268 5.5509 26.3647 5.01653 26.3647 4.31667C26.3647 3.62554 26.5268 3.09708 26.851 2.73114C27.1752 2.36527 27.6676 2.18227 28.328 2.18227C28.9704 2.18227 29.4552 2.36231 29.7824 2.72241C30.1096 3.07963 30.2732 3.61105 30.2732 4.31667ZM29.4627 4.31667C29.4627 4.03506 29.4432 3.78385 29.4042 3.56311C29.3651 3.33949 29.2991 3.15219 29.2061 3.00122C29.116 2.84735 28.9959 2.73122 28.8458 2.65281C28.6957 2.57144 28.5111 2.53075 28.292 2.53075C28.0698 2.53075 27.8867 2.57144 27.7426 2.65281C27.5984 2.73122 27.4844 2.84735 27.4003 3.00122C27.3163 3.15219 27.2577 3.33949 27.2247 3.56311C27.1917 3.78385 27.1752 4.03506 27.1752 4.31667C27.1752 4.60132 27.1917 4.85541 27.2247 5.07896C27.2577 5.30258 27.3163 5.49276 27.4003 5.64958C27.4844 5.80352 27.5984 5.92254 27.7426 6.0068C27.8867 6.08817 28.0698 6.12878 28.292 6.12878C28.5111 6.12878 28.6957 6.08809 28.8458 6.00672C28.9959 5.92254 29.116 5.80352 29.2061 5.64958C29.2991 5.49276 29.3651 5.30265 29.4042 5.07896C29.4432 4.85541 29.4627 4.60132 29.4627 4.31667ZM34.3934 2.29123V3.45859H34.1458L33.9521 2.73551C33.847 2.71812 33.7134 2.70067 33.5513 2.68321C33.3871 2.66256 33.2216 2.65238 33.056 2.65273H32.8849V6.08084L33.4883 6.18973V6.38576H31.4845V6.18973L32.1374 6.08084V2.65273H31.9708C31.7997 2.65273 31.6331 2.66294 31.471 2.68321C31.3119 2.70067 31.1798 2.71805 31.0748 2.73551L30.8811 3.45859H30.6335V2.29123H34.3934ZM36.7439 2.19972C36.9361 2.19972 37.1147 2.21718 37.2798 2.25202C37.4449 2.28679 37.5874 2.34641 37.7076 2.43059C37.8276 2.51485 37.9207 2.62958 37.9868 2.77471C38.0558 2.91704 38.0903 3.09708 38.0903 3.31486V6.08084L38.6171 6.18973V6.38576H37.4554L37.3699 5.97632C37.3248 6.01989 37.2633 6.07071 37.1852 6.1287C37.1101 6.18685 37.0186 6.24203 36.9106 6.29425C36.8025 6.34367 36.6764 6.38576 36.5323 6.4206C36.3912 6.45544 36.2336 6.4729 36.0595 6.4729C35.8553 6.4729 35.6827 6.44235 35.5417 6.38139C35.4035 6.32044 35.2925 6.23619 35.2084 6.12878C35.1244 6.01841 35.0643 5.88918 35.0283 5.74109C34.9923 5.59011 34.9743 5.42744 34.9743 5.25324C34.9743 5.07319 34.9968 4.91785 35.0419 4.78714C35.0868 4.65354 35.1499 4.54177 35.2309 4.45175C35.3107 4.36275 35.4069 4.2889 35.5146 4.23397C35.6272 4.17532 35.7466 4.12997 35.8704 4.0989C36.0034 4.06633 36.1389 4.04448 36.2757 4.03358C36.4195 4.02196 36.5636 4.01468 36.7079 4.01176L37.3428 3.99437V3.35407C37.3428 3.23208 37.3323 3.12179 37.3113 3.02304C37.2903 2.9214 37.2542 2.83426 37.2032 2.76162C37.1552 2.68905 37.0891 2.63239 37.0051 2.59178C36.9211 2.55109 36.816 2.53075 36.6899 2.53075C36.5458 2.53075 36.4002 2.54969 36.2531 2.58741C36.106 2.62514 35.9769 2.67455 35.8658 2.73551L35.7128 3.24518H35.4606V2.35218C35.6604 2.31071 35.8617 2.27585 36.064 2.24766C36.2741 2.2157 36.5007 2.19972 36.7439 2.19972ZM37.3428 4.29929L36.753 4.31667C36.5758 4.32251 36.4228 4.33997 36.2937 4.36897C36.1646 4.39508 36.058 4.44161 35.9739 4.50833C35.8899 4.57513 35.8268 4.66664 35.7848 4.78277C35.7428 4.89891 35.7217 5.047 35.7217 5.22705C35.7217 5.7382 35.9364 5.9937 36.3657 5.9937C36.5699 5.9937 36.7455 5.97196 36.8926 5.92839C37.0466 5.8804 37.1971 5.82219 37.3428 5.75418V4.29929ZM39.4772 2.59614L38.9143 2.48725V2.29123H40.7381V2.48725L40.2247 2.59614V4.11199H42.206V2.59614L41.6431 2.48725V2.29123H43.4668V2.48725L42.9534 2.59614V6.08084L43.4668 6.18973V6.38576H41.6431V6.18973L42.206 6.08084V4.47349H40.2247V6.08084L40.7381 6.18973V6.38576H38.9143V6.18973L39.4772 6.08084V2.59614ZM47.9427 4.31667C47.9427 5.01076 47.7822 5.54365 47.4609 5.91529C47.1397 6.28701 46.6399 6.4729 45.9614 6.4729C45.3251 6.4729 44.8447 6.28848 44.5205 5.91966C44.1963 5.5509 44.0342 5.01653 44.0342 4.31667C44.0342 3.62554 44.1963 3.09708 44.5205 2.73114C44.8447 2.36527 45.337 2.18227 45.9975 2.18227C46.6399 2.18227 47.1247 2.36231 47.4519 2.72241C47.7791 3.07963 47.9427 3.61105 47.9427 4.31667ZM47.1322 4.31667C47.1322 4.03506 47.1127 3.78385 47.0737 3.56311C47.0346 3.33949 46.9686 3.15219 46.8755 3.00122C46.7855 2.84735 46.6654 2.73122 46.5153 2.65281C46.3652 2.57144 46.1806 2.53075 45.9614 2.53075C45.7393 2.53075 45.5562 2.57144 45.4121 2.65281C45.268 2.73122 45.1539 2.84735 45.0698 3.00122C44.9858 3.15219 44.9273 3.33949 44.8942 3.56311C44.8612 3.78385 44.8447 4.03506 44.8447 4.31667C44.8447 4.60132 44.8612 4.85541 44.8942 5.07896C44.9273 5.30258 44.9858 5.49276 45.0698 5.64958C45.1539 5.80352 45.268 5.92254 45.4121 6.0068C45.5562 6.08817 45.7393 6.12878 45.9614 6.12878C46.1806 6.12878 46.3652 6.08809 46.5153 6.00672C46.6654 5.92254 46.7855 5.80352 46.8755 5.64958C46.9686 5.49276 47.0346 5.30265 47.0737 5.07896C47.1127 4.85541 47.1322 4.60132 47.1322 4.31667ZM50.7661 6.38576V6.18973L51.3289 6.08084V2.59614L50.7661 2.48725V2.29123H52.5762C52.8494 2.29123 53.097 2.30573 53.3192 2.3348C53.5444 2.36091 53.7365 2.41173 53.8956 2.48718C54.0547 2.55982 54.1778 2.65998 54.2648 2.78781C54.3519 2.91556 54.3954 3.07963 54.3954 3.28002C54.3954 3.55875 54.3128 3.77364 54.1477 3.92469C53.9856 4.07567 53.7545 4.18456 53.4543 4.25135V4.28619C53.8355 4.32688 54.1283 4.42127 54.3324 4.56936C54.5365 4.71745 54.6386 4.93959 54.6386 5.23585C54.6386 5.43329 54.6041 5.60461 54.535 5.74982C54.466 5.89207 54.3534 6.01116 54.1973 6.10696C54.0442 6.19994 53.843 6.26962 53.5939 6.31608C53.3447 6.36253 53.0401 6.38576 52.6798 6.38576H50.7661ZM52.6122 6.03735C52.8074 6.03735 52.98 6.02566 53.1301 6.00243C53.2832 5.97632 53.4108 5.93275 53.5128 5.87172C53.618 5.80788 53.6959 5.72363 53.747 5.61911C53.8011 5.5117 53.828 5.3781 53.828 5.2184C53.828 5.06734 53.7995 4.94248 53.7425 4.8438C53.6884 4.74216 53.6074 4.66375 53.4994 4.60857C53.3913 4.5505 53.2577 4.50981 53.0986 4.48651C52.9395 4.46336 52.7579 4.45175 52.5537 4.45175H52.0764V6.03727H52.6122V6.03735ZM52.0764 4.10326H52.5537C52.7579 4.10326 52.926 4.0858 53.0581 4.05096C53.1931 4.01619 53.2997 3.9653 53.3778 3.89858C53.4558 3.83171 53.5098 3.75189 53.5399 3.65891C53.5699 3.56311 53.5849 3.4557 53.5849 3.33661C53.5849 3.10138 53.5008 2.92717 53.3327 2.81392C53.1676 2.69778 52.902 2.63971 52.5357 2.63971H52.0764V4.10326ZM59.2361 6.03727L60.0106 6.15489V6.38576H57.597V6.15489L58.3715 6.03727V0.888633L57.597 0.775381V0.544438H60.0106V0.775233L59.2361 0.888559V6.0372V6.03727ZM61.7532 6.38576V6.15489L62.7123 6.03727V0.91911H62.4827C62.0894 0.91911 61.7592 0.927838 61.4921 0.945222C61.2248 0.962679 61.0358 0.982948 60.9247 1.00618L60.8031 1.91663H60.5014V0.544438H65.8149V1.91663H65.5087L65.3871 1.00618C65.3331 0.994562 65.252 0.984427 65.1439 0.975699C65.021 0.965934 64.8979 0.958683 64.7747 0.953951C64.6336 0.945222 64.479 0.939452 64.3109 0.936493C64.1413 0.930625 63.9717 0.92774 63.8021 0.927838H63.5814V6.03727L64.5406 6.15489V6.38576H61.7532ZM65.4681 4.6173V3.9508H67.8637V4.6173H65.4681ZM68.8498 6.01116C68.9129 6.01116 68.973 5.97344 69.03 5.89791C69.087 5.82246 69.144 5.69611 69.2011 5.51895C69.2611 5.34178 69.3212 5.10951 69.3812 4.82198C69.4442 4.53156 69.5102 4.17442 69.5794 3.75041L69.7684 2.59614L69.1786 2.48725V2.29123H72.5828V2.48725L72.0695 2.59614V6.08084L72.5828 6.18973V6.38576H70.7591V6.18973L71.3219 6.08084V2.65273H70.1737L69.98 3.8681C69.9233 4.22772 69.8602 4.58639 69.791 4.94396C69.7309 5.26337 69.6573 5.53633 69.5703 5.76284C69.4863 5.98934 69.3797 6.16502 69.2506 6.28996C69.1245 6.41187 68.9654 6.4729 68.7733 6.4729C68.6742 6.4729 68.5827 6.45692 68.4986 6.42496C68.4176 6.39589 68.356 6.36394 68.314 6.32917L68.2869 5.61911H68.4896L68.6292 5.84998C68.6472 5.88193 68.6758 5.91677 68.7148 5.9545C68.7568 5.99222 68.8018 6.01116 68.8498 6.01116ZM74.8928 2.19972C75.0849 2.19972 75.2635 2.21718 75.4286 2.25202C75.5937 2.28679 75.7363 2.34641 75.8564 2.43059C75.9765 2.51485 76.0695 2.62958 76.1356 2.77471C76.2047 2.91704 76.2391 3.09708 76.2391 3.31486V6.08084L76.7662 6.18973V6.38576H75.6042L75.5187 5.97632C75.4737 6.01989 75.4121 6.07071 75.3341 6.1287C75.259 6.18685 75.1675 6.24203 75.0594 6.29425C74.9513 6.34367 74.8252 6.38576 74.6811 6.4206C74.5401 6.45544 74.3825 6.4729 74.2083 6.4729C74.0042 6.4729 73.8316 6.44235 73.6905 6.38139C73.5524 6.32044 73.4413 6.23619 73.3573 6.12878C73.2732 6.01841 73.2132 5.88918 73.1772 5.74109C73.1412 5.59011 73.1232 5.42744 73.1232 5.25324C73.1232 5.07319 73.1456 4.91785 73.1907 4.78714C73.2357 4.65354 73.2988 4.54177 73.3798 4.45175C73.4595 4.36277 73.5557 4.28892 73.6634 4.23397C73.776 4.17532 73.8955 4.12997 74.0192 4.0989C74.1522 4.06633 74.2877 4.04448 74.4245 4.03358C74.5683 4.02196 74.7125 4.01468 74.8568 4.01176L75.4917 3.99437V3.35407C75.4917 3.23208 75.4812 3.12179 75.4601 3.02304C75.4391 2.9214 75.4031 2.83426 75.3521 2.76162C75.3041 2.68905 75.238 2.63239 75.154 2.59178C75.0699 2.55109 74.9648 2.53075 74.8387 2.53075C74.6947 2.53075 74.549 2.54969 74.4019 2.58741C74.2548 2.62514 74.1258 2.67455 74.0147 2.73551L73.8616 3.24518H73.6094V2.35218C73.8093 2.31071 74.0105 2.27585 74.2128 2.24766C74.423 2.2157 74.6496 2.19972 74.8928 2.19972ZM75.4917 4.29929L74.9018 4.31667C74.7247 4.32251 74.5716 4.33997 74.4425 4.36897C74.3134 4.39508 74.2069 4.44161 74.1227 4.50833C74.0387 4.57513 73.9756 4.66664 73.9337 4.78277C73.8916 4.89891 73.8706 5.047 73.8706 5.22705C73.8706 5.7382 74.0853 5.9937 74.5145 5.9937C74.7187 5.9937 74.8942 5.97196 75.0414 5.92839C75.1954 5.8804 75.3459 5.82219 75.4917 5.75418V4.29929ZM77.3285 3.86803C77.3285 3.35695 77.3592 2.8981 77.4189 2.49154C77.4818 2.08499 77.5898 1.73658 77.743 1.44616C77.8993 1.15286 78.1062 0.91911 78.3644 0.744904C78.6256 0.570625 78.9543 0.460258 79.3504 0.413803C79.5366 0.39346 79.7143 0.374597 79.8821 0.357214C80.0529 0.336871 80.2046 0.312164 80.3372 0.283167C80.472 0.254096 80.5846 0.217775 80.6743 0.174205C80.7647 0.13071 80.826 0.0725671 80.8589 0H81.0842C81.075 0.229389 81.0336 0.409438 80.9585 0.540148C80.8834 0.667899 80.7723 0.768131 80.6252 0.840699C80.4812 0.913266 80.3012 0.965564 80.0844 0.99752C79.8683 1.02948 79.6147 1.06284 79.3236 1.09768C78.9995 1.13541 78.7444 1.19495 78.5582 1.27625C78.372 1.35762 78.2295 1.47376 78.1307 1.62473C78.0311 1.77579 77.9637 1.96885 77.9277 2.20409C77.8947 2.43932 77.8694 2.72966 77.851 3.07526H77.8824C77.9277 2.95328 77.9905 2.83855 78.0717 2.73114C78.1562 2.62046 78.2599 2.52469 78.3781 2.44805C78.5015 2.36668 78.6409 2.30284 78.7965 2.25639C78.9528 2.20697 79.1267 2.18234 79.319 2.18234C79.9556 2.18234 80.4345 2.36379 80.7555 2.72678C81.0765 3.08688 81.2374 3.61682 81.2374 4.31667C81.2374 5.01076 81.0765 5.54365 80.7555 5.91529C80.4345 6.28701 79.9342 6.4729 79.2561 6.4729C78.6195 6.4729 78.1391 6.26089 77.815 5.83688C77.4909 5.41006 77.3285 4.75378 77.3285 3.86803ZM80.4268 4.31667C80.4268 4.03506 80.4077 3.78385 80.3686 3.56311C80.3295 3.33949 80.2636 3.15219 80.1702 3.00122C80.0805 2.84735 79.9602 2.73122 79.8101 2.65281C79.6599 2.57144 79.4753 2.53075 79.2561 2.53075C79.034 2.53075 78.8509 2.57144 78.7068 2.65281C78.5628 2.73122 78.4486 2.84735 78.3644 3.00122C78.2808 3.15219 78.2218 3.33949 78.1889 3.56311C78.156 3.78385 78.1391 4.03506 78.1391 4.31667C78.1391 4.60132 78.1606 4.85541 78.2027 5.07896C78.2471 5.30258 78.3153 5.49276 78.405 5.64958C78.4954 5.80352 78.6111 5.92254 78.752 6.0068C78.893 6.08817 79.0608 6.12878 79.2561 6.12878C79.4753 6.12878 79.6599 6.08809 79.8101 6.00672C79.9602 5.92254 80.0805 5.80352 80.1702 5.64958C80.2636 5.49276 80.3295 5.30265 80.3686 5.07896C80.4077 4.85541 80.4268 4.60132 80.4268 4.31667ZM85.8481 4.31667C85.8481 5.01076 85.6879 5.54365 85.3669 5.91529C85.0451 6.28701 84.5456 6.4729 83.8668 6.4729C83.2309 6.4729 82.7505 6.28848 82.4265 5.91966C82.1016 5.5509 81.9399 5.01653 81.9399 4.31667C81.9399 3.62554 82.1016 3.09708 82.4265 2.73114C82.7505 2.36527 83.2424 2.18227 83.9028 2.18227C84.5456 2.18227 85.0306 2.36231 85.3577 2.72241C85.6849 3.07963 85.8481 3.61105 85.8481 4.31667ZM85.0382 4.31667C85.0382 4.03506 85.0183 3.78385 84.9792 3.56311C84.9402 3.33949 84.8743 3.15219 84.7816 3.00122C84.6912 2.84735 84.5709 2.73122 84.4207 2.65281C84.2706 2.57144 84.0859 2.53075 83.8668 2.53075C83.6446 2.53075 83.4615 2.57144 83.3175 2.65281C83.1734 2.73122 83.0593 2.84735 82.9758 3.00122C82.8915 3.15219 82.8333 3.33949 82.7996 3.56311C82.7666 3.78385 82.7505 4.03506 82.7505 4.31667C82.7505 4.60132 82.7666 4.85541 82.7996 5.07896C82.8333 5.30258 82.8915 5.49276 82.9758 5.64958C83.0593 5.80352 83.1734 5.92254 83.3175 6.0068C83.4615 6.08817 83.6446 6.12878 83.8668 6.12878C84.0859 6.12878 84.2706 6.08809 84.4207 6.00672C84.5709 5.92254 84.6912 5.80352 84.7816 5.64958C84.8743 5.49276 84.9402 5.30265 84.9792 5.07896C85.0183 4.85541 85.0382 4.60132 85.0382 4.31667ZM86.8839 2.59614L86.402 2.48725V2.29123H87.591L87.6002 2.53075C87.663 2.47853 87.7366 2.43207 87.8209 2.39139C87.9102 2.34687 88.0035 2.31042 88.0998 2.2825C88.1986 2.25054 88.3043 2.22584 88.4154 2.20845C88.5265 2.19099 88.6384 2.18234 88.7525 2.18234C89.0168 2.18234 89.2543 2.22731 89.4643 2.31734C89.6742 2.40736 89.8527 2.54236 89.9998 2.72241C90.1469 2.89958 90.258 3.12031 90.3331 3.38447C90.4112 3.64589 90.4503 3.94792 90.4503 4.29063C90.4503 4.62454 90.4112 4.9265 90.3331 5.19658C90.2549 5.46376 90.1385 5.69315 89.9822 5.88482C89.8259 6.07359 89.6297 6.2188 89.3922 6.32044C89.1578 6.42208 88.8835 6.47282 88.5679 6.47282C88.4154 6.47282 88.253 6.46417 88.0821 6.44671C87.9136 6.43221 87.7535 6.40899 87.6002 6.37703C87.6033 6.41187 87.6064 6.45108 87.6094 6.49465C87.6148 6.5411 87.6179 6.58756 87.6179 6.63401C87.6209 6.68342 87.6225 6.7284 87.6225 6.76908C87.6255 6.80977 87.627 6.84306 87.627 6.86924V7.97565L88.3656 8.08018V8.28493H86.3484V8.08018L86.8839 7.97565V2.59614ZM89.6397 4.29056C89.6397 3.99437 89.6144 3.74168 89.5631 3.53264C89.5125 3.32351 89.4374 3.15367 89.3378 3.02296C89.2421 2.88944 89.1233 2.79217 88.9824 2.73114C88.8414 2.67019 88.682 2.63971 88.505 2.63971C88.361 2.63971 88.2062 2.65273 88.0415 2.67892C87.8791 2.70215 87.7412 2.73699 87.627 2.78344V6.05466C87.7535 6.07788 87.8929 6.09675 88.0461 6.11125C88.1986 6.12286 88.3518 6.1287 88.505 6.1287C88.9011 6.1287 89.1892 5.9704 89.37 5.65387C89.5501 5.33446 89.6397 4.87997 89.6397 4.29056ZM92.9042 2.19972C93.0965 2.19972 93.2751 2.21718 93.4405 2.25202C93.6053 2.28679 93.7478 2.34641 93.868 2.43059C93.9883 2.51485 94.081 2.62958 94.1477 2.77471C94.2167 2.91704 94.2511 3.09708 94.2511 3.31486V6.08084L94.7775 6.18973V6.38576H93.616L93.5302 5.97632C93.4858 6.01989 93.4237 6.07071 93.3455 6.1287C93.2705 6.18685 93.1793 6.24203 93.0713 6.29425C92.9632 6.34367 92.8368 6.38576 92.6928 6.4206C92.5518 6.45544 92.394 6.4729 92.2201 6.4729C92.0163 6.4729 91.8431 6.44235 91.7022 6.38139C91.5643 6.32044 91.4532 6.23619 91.3689 6.12878C91.2846 6.01841 91.2249 5.88918 91.1889 5.74109C91.1528 5.59011 91.1352 5.42744 91.1352 5.25324C91.1352 5.07319 91.1574 4.91785 91.2026 4.78714C91.2471 4.65354 91.3107 4.54177 91.3919 4.45175C91.4714 4.36264 91.5676 4.28876 91.6753 4.23397C91.7864 4.1759 91.9052 4.13085 92.0308 4.0989C92.1603 4.06694 92.2952 4.04519 92.4361 4.03358C92.5799 4.02196 92.724 4.01468 92.8682 4.01176L93.5034 3.99437V3.35407C93.5034 3.23208 93.4926 3.12179 93.472 3.02304C93.4505 2.9214 93.4145 2.83426 93.3639 2.76162C93.3157 2.68905 93.2498 2.63239 93.1655 2.59178C93.082 2.55109 92.9763 2.53075 92.8506 2.53075C92.7066 2.53075 92.561 2.54969 92.4139 2.58741C92.2668 2.62514 92.1373 2.67455 92.0262 2.73551L91.873 3.24518H91.621V2.35218C91.8163 2.3115 92.0171 2.27673 92.2247 2.24766C92.4346 2.2157 92.6614 2.19972 92.9042 2.19972ZM93.5034 4.29929L92.9134 4.31667C92.7365 4.32251 92.5832 4.33997 92.4545 4.36897C92.325 4.39508 92.2185 4.44161 92.1343 4.50833C92.0508 4.57513 91.9872 4.66664 91.945 4.78277C91.9037 4.89891 91.8822 5.047 91.8822 5.22705C91.8822 5.7382 92.0967 5.9937 92.5265 5.9937C92.7303 5.9937 92.9058 5.97196 93.0529 5.92839C93.207 5.8804 93.3575 5.82219 93.5034 5.75418V4.29929ZM98.5599 2.29123V3.45859H98.3125L98.1186 2.73551C98.0137 2.71812 97.8804 2.70067 97.7179 2.68321C97.5538 2.66256 97.3885 2.65238 97.223 2.65273H97.0514V6.08084L97.6551 6.18973V6.38576H95.6516V6.18973L96.3044 6.08084V2.65273H96.1374C95.9665 2.65273 95.8003 2.66294 95.6379 2.68321C95.4785 2.70067 95.3467 2.71805 95.2418 2.73551L95.0479 3.45859H94.8005V2.29123H98.5599ZM102.833 4.31667C102.833 5.01076 102.673 5.54365 102.352 5.91529C102.031 6.28701 101.53 6.4729 100.852 6.4729C100.216 6.4729 99.7352 6.28848 99.4111 5.91966C99.087 5.5509 98.9246 5.01653 98.9246 4.31667C98.9246 3.62554 99.087 3.09708 99.4111 2.73114C99.7352 2.36527 100.228 2.18227 100.888 2.18227C101.53 2.18227 102.015 2.36231 102.342 2.72241C102.67 3.07963 102.833 3.61105 102.833 4.31667ZM102.023 4.31667C102.023 4.03506 102.004 3.78385 101.965 3.56311C101.926 3.33949 101.86 3.15219 101.766 3.00122C101.677 2.84735 101.556 2.73122 101.406 2.65281C101.256 2.57144 101.071 2.53075 100.852 2.53075C100.63 2.53075 100.447 2.57144 100.303 2.65281C100.159 2.73122 100.045 2.84735 99.9604 3.00122C99.8769 3.15219 99.8179 3.33949 99.785 3.56311C99.7521 3.78385 99.7352 4.03506 99.7352 4.31667C99.7352 4.60132 99.7521 4.85541 99.785 5.07896C99.8179 5.30258 99.8769 5.49276 99.9604 5.64958C100.045 5.80352 100.159 5.92254 100.303 6.0068C100.447 6.08817 100.63 6.12878 100.852 6.12878C101.071 6.12878 101.256 6.08809 101.406 6.00672C101.556 5.92254 101.677 5.80352 101.766 5.64958C101.86 5.49276 101.926 5.30265 101.965 5.07896C102.004 4.85541 102.023 4.60132 102.023 4.31667ZM103.869 2.59614L103.387 2.48725V2.29123H104.576L104.585 2.53075C104.648 2.47853 104.722 2.43207 104.806 2.39139C104.893 2.34782 104.986 2.3115 105.085 2.2825C105.188 2.24962 105.293 2.22485 105.4 2.20845C105.511 2.19099 105.624 2.18234 105.738 2.18234C106.002 2.18234 106.239 2.22731 106.45 2.31734C106.66 2.40736 106.838 2.54236 106.985 2.72241C107.132 2.89958 107.243 3.12031 107.318 3.38447C107.397 3.64589 107.436 3.94792 107.436 4.29063C107.436 4.62454 107.397 4.9265 107.318 5.19658C107.24 5.46376 107.123 5.69315 106.967 5.88482C106.811 6.07359 106.614 6.2188 106.377 6.32044C106.143 6.42208 105.868 6.47282 105.553 6.47282C105.4 6.47282 105.238 6.46417 105.067 6.44671C104.899 6.43221 104.738 6.40899 104.585 6.37703C104.588 6.41187 104.591 6.45108 104.594 6.49465C104.6 6.5411 104.603 6.58756 104.603 6.63401C104.606 6.68342 104.608 6.7284 104.608 6.76908C104.611 6.80977 104.612 6.84306 104.612 6.86924V7.97565L105.35 8.08018V8.28493H103.333V8.08018L103.869 7.97565V2.59614ZM106.625 4.29056C106.625 3.99437 106.599 3.74168 106.549 3.53264C106.497 3.32351 106.422 3.15367 106.323 3.02296C106.228 2.88944 106.109 2.79217 105.968 2.73114C105.826 2.67019 105.667 2.63971 105.49 2.63971C105.346 2.63971 105.192 2.65273 105.026 2.67892C104.865 2.70215 104.726 2.73699 104.612 2.78344V6.05466C104.738 6.07788 104.878 6.09675 105.031 6.11125C105.184 6.12286 105.337 6.1287 105.49 6.1287C105.887 6.1287 106.175 5.9704 106.355 5.65387C106.535 5.33446 106.625 4.87997 106.625 4.29056ZM108.525 2.59614L107.962 2.48725V2.29123H109.786V2.48725L109.273 2.59614V5.17046L111.254 3.09701V2.59614L110.691 2.48725V2.29123H112.514V2.48725L112.001 2.59614V6.08084L112.514 6.18973V6.38576H110.691V6.18973L111.254 6.08084V3.5893L109.273 5.66268V6.08084L109.786 6.18973V6.38576H107.962V6.18973L108.525 6.08084V2.59614ZM113.461 2.59614L112.898 2.48725V2.29123H114.721V2.48725L114.208 2.59614V5.17046L116.189 3.09701V2.59614L115.627 2.48725V2.29123H117.45V2.48725L116.937 2.59614V6.08084L117.45 6.18973V6.38576H115.627V6.18973L116.189 6.08084V3.5893L114.208 5.66268V6.08084L114.721 6.18973V6.38576H112.898V6.18973L113.461 6.08084V2.59614Z" fill="white"/>
</g>
<defs>
<clipPath id="clip0_10_399">
<rect width="117.45" height="54" fill="white"/>
</clipPath>
</defs>
</svg>
