<svg width="36" height="36" viewBox="0 0 36 36" fill="none" xmlns="http://www.w3.org/2000/svg">
<rect width="36" height="36" rx="18" fill="white"/>
<path d="M17.9998 9.63012C19.414 9.63012 20.5644 10.7805 20.5644 12.1947C20.5644 13.6077 19.4137 14.7581 17.9998 14.7581C16.5865 14.7581 15.4358 13.6077 15.4358 12.1947C15.4355 10.7802 16.5868 9.63012 17.9998 9.63012ZM17.9998 18.3864C21.4159 18.3864 24.1939 15.6093 24.1939 12.1947C24.1939 8.77833 21.4162 6 17.9998 6C14.584 6 11.8057 8.77863 11.8057 12.1947C11.8057 15.6093 14.584 18.3864 17.9998 18.3864ZM20.5057 23.4388C21.7799 23.1486 22.9959 22.6451 24.1023 21.9495C24.5096 21.6933 24.7984 21.2857 24.9052 20.8165C25.012 20.3473 24.9281 19.8548 24.6718 19.4475C24.5451 19.2456 24.3798 19.0707 24.1854 18.9328C23.991 18.7948 23.7713 18.6966 23.5389 18.6436C23.3065 18.5906 23.0659 18.584 22.831 18.624C22.596 18.6641 22.3712 18.7501 22.1695 18.8771C19.6319 20.4725 16.3659 20.4713 13.8304 18.8771C13.6287 18.7501 13.4039 18.664 13.169 18.6239C12.934 18.5839 12.6935 18.5905 12.4611 18.6435C12.2287 18.6965 12.009 18.7947 11.8147 18.9327C11.6203 19.0707 11.455 19.2456 11.3284 19.4475C11.072 19.8547 10.9879 20.3471 11.0946 20.8163C11.2012 21.2855 11.4898 21.6931 11.897 21.9495C13.0033 22.6448 14.2191 23.1483 15.493 23.4388L12.0304 26.902C11.6901 27.2424 11.499 27.704 11.4991 28.1853C11.4992 28.6666 11.6905 29.1282 12.0309 29.4685C12.3713 29.8087 12.8329 29.9999 13.3142 29.9998C13.7955 29.9997 14.2571 29.8084 14.5974 29.468L17.9992 26.0656L21.4031 29.4683C21.5714 29.6369 21.7713 29.7706 21.9913 29.8618C22.2113 29.953 22.4472 30 22.6854 30C22.9236 30 23.1594 29.953 23.3795 29.8618C23.5995 29.7706 23.7994 29.6369 23.9677 29.4683C24.1365 29.3 24.2704 29.1001 24.3618 28.8799C24.4532 28.6598 24.5002 28.4238 24.5002 28.1854C24.5002 27.9471 24.4532 27.7111 24.3618 27.4909C24.2704 27.2708 24.1365 27.0708 23.9677 26.9026L20.5057 23.4388Z" fill="#5050EB"/>
</svg>
